<?xml version="1.0" encoding="UTF-8" standalone="no"?>
<!-- Created with Inkscape (http://www.inkscape.org/) -->

<svg
   xmlns:dc="http://purl.org/dc/elements/1.1/"
   xmlns:cc="http://creativecommons.org/ns#"
   xmlns:rdf="http://www.w3.org/1999/02/22-rdf-syntax-ns#"
   xmlns:svg="http://www.w3.org/2000/svg"
   xmlns="http://www.w3.org/2000/svg"
   xmlns:xlink="http://www.w3.org/1999/xlink"
   xmlns:sodipodi="http://sodipodi.sourceforge.net/DTD/sodipodi-0.dtd"
   xmlns:inkscape="http://www.inkscape.org/namespaces/inkscape"
   width="1250"
   height="1250"
   viewBox="0 0 352.77779 352.77778"
   id="svg3352"
   version="1.1"
   inkscape:version="0.91+devel r"
   sodipodi:docname="squawk-cc.svg"
   inkscape:export-filename="/home/cats/workspace/squawk/assets/squawk-cc-250x250-newtransbg.png"
   inkscape:export-xdpi="84.666664"
   inkscape:export-ydpi="84.666664">
  <defs
     id="defs3354">
    <linearGradient
       inkscape:collect="always"
       id="linearGradient4271">
      <stop
         style="stop-color:#ddfff8;stop-opacity:1"
         offset="0"
         id="stop4273" />
      <stop
         style="stop-color:#2ca089;stop-opacity:1"
         offset="1"
         id="stop4275" />
    </linearGradient>
    <radialGradient
       inkscape:collect="always"
       xlink:href="#linearGradient4271"
       id="radialGradient4277"
       cx="161.33144"
       cy="73.450874"
       fx="161.33144"
       fy="73.450874"
       r="31.864775"
       gradientTransform="matrix(0.57447091,-0.74659294,1.1537887,0.88778807,-324.16602,153.94135)"
       gradientUnits="userSpaceOnUse" />
  </defs>
  <sodipodi:namedview
     inkscape:document-units="mm"
     pagecolor="#ffffff"
     bordercolor="#666666"
     borderopacity="1.0"
     inkscape:pageopacity="0"
     inkscape:pageshadow="2"
     inkscape:zoom="0.7456"
     inkscape:cx="601.52897"
     inkscape:cy="625"
     inkscape:current-layer="layer1"
     id="namedview3356"
     showgrid="false"
     inkscape:window-width="1920"
     inkscape:window-height="1124"
     inkscape:window-x="0"
     inkscape:window-y="24"
     inkscape:window-maximized="1"
     fit-margin-top="0"
     fit-margin-left="0"
     fit-margin-right="0"
     fit-margin-bottom="0"
     units="mm"
     showguides="true"
     inkscape:guide-bbox="true"
     inkscape:snap-global="false"
     borderlayer="true"
     inkscape:showpageshadow="true" />
  <metadata
     id="metadata3358">
    <rdf:RDF>
      <cc:Work
         rdf:about="">
        <dc:format>image/svg+xml</dc:format>
        <dc:type
           rdf:resource="http://purl.org/dc/dcmitype/StillImage" />
        <dc:title></dc:title>
      </cc:Work>
    </rdf:RDF>
  </metadata>
  <g
     inkscape:label="Layer 1"
     inkscape:groupmode="layer"
     id="layer1"
     transform="translate(-84.290977,219.172)">
    <g
       id="g4304"
       transform="matrix(4.4097223,0,0,4.4097223,-442.974,-299.99341)"
       inkscape:export-xdpi="84.480003"
       inkscape:export-ydpi="84.480003">
      <rect
         inkscape:export-ydpi="84.666664"
         inkscape:export-xdpi="84.666664"
         y="18.328005"
         x="119.56875"
         height="80"
         width="80"
         id="rect4250"
         style="fill:#ffffff;fill-opacity:1;fill-rule:evenodd;stroke:none;stroke-width:0.28222224px;stroke-linecap:butt;stroke-linejoin:miter;stroke-opacity:1" />
      <g
         style="stroke-width:0.86170769"
         transform="matrix(0.97235845,0.6334362,-0.63343217,0.97236742,36.977201,-101.03459)"
         id="g4264">
        <path
           inkscape:connector-curvature="0"
           style="fill:url(#radialGradient4277);fill-opacity:1;stroke:none;stroke-width:0.86170769"
           d="m -118.43864,94.634567 a 30.743393,29.503176 0 0 1 -30.7434,29.503173 30.743393,29.503176 0 0 1 -30.74339,-29.503173 30.743393,29.503176 0 0 1 30.74339,-29.503175 30.743393,29.503176 0 0 1 30.7434,29.503175 z"
           id="circle"
           transform="matrix(-0.97379894,0.22741068,0.22741068,0.97379894,0,0)" />
        <g
           style="stroke-width:0.86170769"
           id="group-cocky">
          <path
             sodipodi:nodetypes="ccccccccccccccc"
             inkscape:connector-curvature="0"
             id="head-white"
             d="m 182.42768,46.945518 c 0.3761,-2.152082 1.15332,-4.182116 -3.52058,-7.870813 -3.00563,-1.979383 -6.76841,-1.938553 -10.7083,-1.425157 -7.82012,1.47641 -13.87093,6.285666 -21.05639,9.964819 -2.95484,3.764867 -8.87089,4.753601 -6.92377,13.114062 -0.20264,3.074482 1.99781,6.1443 3.35259,8.352287 -0.49496,2.002254 -2.63937,2.277503 -2.7755,5.424933 10.6528,15.920348 32.54542,17.129103 45.50245,6.235105 -2.39354,-5.605341 -4.00806,-4.178904 -8.53236,-8.421345 l 0.58872,-1.989209 -2.24356,-4.804011 -5.54123,-5.716422 c 2.79918,-3.760902 6.17191,-7.602672 8.23495,-12.005085 1.61626,-2.025774 1.3029,-1.728721 3.62303,-0.859166 z"
             style="opacity:1;fill:#ffffff;fill-rule:evenodd;stroke:none;stroke-width:0.86170769" />
          <g
             style="stroke-width:0.86170769"
             id="group-eye">
            <path
               inkscape:connector-curvature="0"
               id="eye-green"
               d="m -158.34304,63.176899 a 3.8741806,2.9256318 0 0 1 -3.87418,2.925632 3.8741806,2.9256318 0 0 1 -3.87418,-2.925632 3.8741806,2.9256318 0 0 1 3.87418,-2.925632 3.8741806,2.9256318 0 0 1 3.87418,2.925632 z"
               inkscape:transform-center-y="1.1368464"
               inkscape:transform-center-x="0.94157864"
               style="fill:#5fd3bc;fill-opacity:1;stroke:none;stroke-width:0.86170769"
               transform="matrix(-0.99743143,0.07162782,0.09951045,0.99503652,0,0)" />
            <path
               inkscape:connector-curvature="0"
               inkscape:label="#eye-black"
               id="eye-black"
               d="m -150.63008,88.214348 a 2.0026522,1.6766392 0 0 1 -2.00266,1.676639 2.0026522,1.6766392 0 0 1 -2.00265,-1.676639 2.0026522,1.6766392 0 0 1 2.00265,-1.676639 2.0026522,1.6766392 0 0 1 2.00266,1.676639 z"
               inkscape:transform-center-y="0.55887971"
               inkscape:transform-center-x="0.55887971"
               style="fill:#000000;fill-opacity:1;stroke:none;stroke-width:0.86170769"
               transform="matrix(-0.97379894,0.22741068,0.22741068,0.97379894,0,0)" />
            <path
               inkscape:connector-curvature="0"
               id="eye-white"
               d="m -152.38306,87.934914 a 0.75357199,0.46573311 0 0 1 -0.75357,0.465733 0.75357199,0.46573311 0 0 1 -0.75357,-0.465733 0.75357199,0.46573311 0 0 1 0.75357,-0.465733 0.75357199,0.46573311 0 0 1 0.75357,0.465733 z"
               style="fill:#ffffff;fill-opacity:1;stroke:none;stroke-width:0.86170769"
               transform="matrix(-0.97379894,0.22741068,0.22741068,0.97379894,0,0)" />
          </g>
          <path
             sodipodi:nodetypes="ccccccccccccccc"
             inkscape:connector-curvature="0"
             id="crest-yellow"
             d="m 140.95705,59.585272 c 1.13451,-0.724281 -0.0486,-1.835622 -0.24507,-2.774664 0.38514,-0.813676 1.55881,-1.256891 2.2366,-1.940288 1.38495,-1.328749 5.40546,-5.323017 4.96563,-6.671986 -0.31428,-0.226356 -0.6078,-1.046126 -1.05392,-0.791672 -2.27597,0.48205 -4.51951,1.188955 -6.84732,1.365157 -2.47402,0.292789 -6.40444,-1.634068 -8.55923,-4.737893 -1.23207,1.302274 1.40721,7.001073 2.45775,7.61583 -0.18554,0.438931 -7.44842,-5.341914 -8.06696,-6.864683 -0.40778,2.845274 1.57716,7.552484 3.06365,8.789591 -1.32668,1.125099 -6.82376,-5.279459 -7.46754,-7.638577 -1.22322,3.580886 0.43079,8.752728 2.69321,11.239974 2.02301,1.993859 4.91824,2.687521 7.66584,2.89506 2.84559,0.277261 5.69193,0.557793 8.54327,0.767364 0.3754,-0.331896 0.15908,-0.941876 0.61409,-1.253213 z"
             style="fill:#ffff00;fill-opacity:1;stroke:#ffff00;stroke-width:0.08617076;stroke-linecap:round;stroke-linejoin:round;stroke-miterlimit:4;stroke-dasharray:none" />
          <g
             style="stroke-width:0.86170769"
             id="group-beak">
            <path
               style="fill:#000000;fill-opacity:1;stroke:#000000;stroke-width:0.86170769;stroke-linecap:round;stroke-linejoin:round;stroke-miterlimit:4;stroke-dasharray:none"
               d="m 179.65112,70.294249 c 2.04204,-1.386601 2.07771,-1.607565 0.18822,-1.166313 l -1.61315,0.376717 -0.65341,-2.099193 c -0.35937,-1.154554 -0.79903,-2.238893 -0.97701,-2.409639 -0.17799,-0.170747 -0.58774,-0.652319 -0.91056,-1.070159 -1.05227,-1.361974 -0.99347,-4.227799 0.11936,-5.863089 0.64165,-0.942581 3.65862,-2.180318 5.09785,-2.091438 1.6234,-0.08398 4.25727,-0.512438 5.13751,-1.318988 0.50368,-0.465458 1.05149,-0.82758 1.21737,-0.804716 0.16586,0.02287 0.78733,0.924678 1.38102,2.004027 0.59369,1.079347 1.14749,1.946558 1.23066,1.927135 0.28702,-0.06703 0.13332,-2.995126 -0.23598,-4.495939 -0.48025,-1.951371 -1.4426,-3.216746 -3.46081,-4.550144 -1.99899,-1.320694 -6.33961,-2.870425 -6.97718,-2.491054 -0.24757,0.147299 -1.30918,1.687598 -2.35914,3.422876 -1.04996,1.735277 -2.99622,4.574197 -4.32503,6.30871 -1.32882,1.734516 -2.40419,3.204345 -2.38972,3.266291 0.0145,0.06194 1.18958,1.304903 2.61137,2.762127 2.36135,2.420198 2.68902,2.868079 3.78623,5.175193 0.73548,1.546492 1.2157,2.8561 1.23866,3.377924 0.0206,0.468723 0.13026,0.822498 0.24367,0.786155 0.11342,-0.03635 0.85593,-0.507259 1.65002,-1.046469 z"
               id="beak-black"
               inkscape:connector-curvature="0"
               sodipodi:nodetypes="csccccccccsccccsccsccccc" />
            <path
               sodipodi:nodetypes="scccccccs"
               style="fill:#d40000;fill-opacity:1;stroke:none;stroke-width:0.86170769"
               d="m 179.33111,66.123795 c -1.01346,-3.599947 -1.1763,-6.367925 -0.43822,-8.008777 0.31901,-0.709178 0.51484,-1.329911 0.43517,-1.379405 -0.36724,-0.228197 -3.29722,1.277875 -3.65397,1.878224 -1.10778,1.864134 -0.89206,4.282847 0.52662,5.904952 0.59634,0.681832 0.97031,1.395147 1.16647,2.224935 0.47775,2.019394 0.72352,2.38348 1.77023,2.139043 l 0.91055,-0.212641 z"
               id="beak-red"
               inkscape:connector-curvature="0" />
          </g>
        </g>
        <path
           inkscape:connector-curvature="0"
           style="font-style:normal;font-variant:normal;font-weight:bold;font-stretch:normal;font-size:9.03111172px;line-height:125%;font-family:'Oswald Stencil';-inkscape-font-specification:'Oswald Stencil Bold';letter-spacing:0.61529839px;word-spacing:0px;fill:#000000;fill-opacity:1;stroke:none;stroke-width:2.46792436"
           d="m 99.693359,179.20117 c -1.29373,0.045 -2.620189,0.4984 -3.898437,1.40039 -2.936303,2.07201 -3.354844,4.89257 -3.650391,7.64453 l -0.220703,1.53125 4.638672,0.80078 c 0.102402,-0.72233 0.208198,-1.46561 0.253906,-1.86132 0.191693,-1.76081 0.670104,-3.36112 2.214844,-4.45118 1.12348,-0.79276 2.48178,-0.92818 3.39844,0.12696 l 3.10156,-2.18946 c -1.61411,-2.01638 -3.68167,-3.0769 -5.837891,-3.00195 z m 6.300781,3.63281 -3.15234,2.22461 c 0.47211,1.29236 -0.65869,2.64372 -1.77539,3.52735 -0.26823,0.18917 -0.55534,0.35347 -0.78516,0.51562 l 3.53125,3.64649 0.47266,-0.33203 c 3.08873,-2.37084 3.85233,-6.4092 1.70898,-9.58204 z m -21.349609,5.59766 c -3.195425,2.59909 -5.126948,6.58332 -2.601562,10.5957 l 3.166015,-2.23437 c -0.61696,-1.68735 1.252222,-3.4845 3.109375,-4.89063 z m 7.183594,2.10352 -0.113281,0.84375 c -0.307559,2.30143 -1.019686,4.86864 -2.921875,6.21093 -1.148988,0.81079 -2.30088,0.99442 -3.197266,-0.11328 l -3.115234,2.19727 c 2.237208,2.95359 6.052542,3.97093 9.24414,1.71875 3.3193,-2.34227 4.131263,-5.61143 4.619141,-9.2832 l 0.08789,-0.76954 z m 18.335935,0.54492 c -2.58791,-0.0698 -5.06177,1.51687 -7.30468,3.89844 l -6.759771,7.17773 c -3.652972,3.87875 -4.804444,8.24546 -0.998047,12.06641 l 2.667969,-2.83204 c -1.353472,-1.63955 -0.197396,-3.59873 1.173828,-5.05468 l 8.345701,-8.85938 c 1.36049,-1.44458 3.25696,-2.72938 4.97461,-1.47656 l 2.65625,-2.82031 c -1.60939,-1.41911 -3.20311,-2.05775 -4.75586,-2.09961 z m 5.32422,2.63476 -2.64453,2.81055 c 1.45318,1.64762 0.24046,3.617 -1.15234,5.0957 l -8.34571,8.86133 c -1.41406,1.50146 -3.25042,2.88328 -5.017575,1.45508 l -2.658203,2.82031 c 0.306496,0.26713 0.657495,0.5326 0.996094,0.76563 -0.258662,1.68789 -0.267748,3.99997 2.146484,6.35937 l 2.11133,-2.24219 c -0.33201,-0.37692 -1.52257,-1.73307 -1.257814,-2.85742 3.181074,0.29151 5.935674,-1.49333 8.099604,-3.79101 l 6.6836,-7.09766 c 3.61013,-3.83325 5.15128,-8.11367 1.03906,-12.17969 z m 5.17578,5.57422 -9.22461,15.7461 c -2.64593,4.51641 -4.06529,9.13672 1.40235,12.53906 l 1.9414,-3.31641 c -1.84989,-1.35535 -1.12392,-3.21366 0.9375,-6.73242 l 9.2168,-15.73242 z m 92.41406,1.32227 c -1.24209,-0.0636 -2.58448,0.26391 -4.03124,1.07031 l 2.0039,3.31641 c 1.8703,-0.80234 3.39675,1.17757 4.54492,3.07617 l 1.22852,2.0332 4.14648,-2.50586 -1.09961,-1.81836 c -1.81213,-2.99664 -4.06035,-5.03191 -6.79297,-5.17187 z m -4.70117,1.47461 c -4.79654,3.11966 -4.13409,7.59678 -1.43359,12.0625 l 5.04492,8.34179 c 2.64388,4.37214 6.32807,7.11155 11.33203,4.30469 l -1.99023,-3.28906 c -1.93964,0.89905 -3.46733,-0.84297 -4.49414,-2.54102 l -6.29883,-10.41601 c -1.02685,-1.69804 -1.85911,-3.86 -0.16211,-5.16016 z m -78.34179,2.69336 -9.21875,15.73242 c -2.1088,3.59964 -3.20446,5.25717 -5.36524,4.1543 l -1.93555,3.30273 c 5.65261,3.1485 8.89303,-0.40389 11.55469,-4.94727 l 9.22461,-15.74804 z m 67.96679,3.00976 c -0.80925,-0.009 -1.68549,0.12387 -2.63476,0.41797 l 1.27734,3.6582 c 1.99573,-0.39871 3.07935,1.85442 3.81055,3.94922 l 0.7832,2.24219 4.57227,-1.5957 -0.69922,-2.00782 c -1.3639,-3.90747 -3.60262,-6.6237 -7.10938,-6.66406 z m -59.81836,0.64063 -14.89648,24.2539 4.49023,1.59766 8.85938,-15.67187 5.10937,-8.91211 z m 56.44532,0.0352 c -5.33746,2.06165 -5.61439,6.57669 -3.89453,11.50391 l 3.21289,9.20508 c 1.68381,4.82395 4.72143,8.26547 10.19726,6.55273 l -1.26562,-3.6289 c -2.08354,0.47901 -3.2191,-1.54249 -3.87305,-3.41602 l -4.01172,-11.49023 c -0.65395,-1.87353 -1.02283,-4.16241 0.90625,-5.08399 z m -52.11719,1.50391 -5.2793,9.20117 -1.50976,8.25196 -2.67969,-0.95313 -1.36524,2.58203 3.41602,1.21484 -0.95703,6.27735 4.60742,1.63867 z m 2.03711,1.32422 0.20312,28.13672 4.00782,0.55469 -0.23438,-13.45508 0.24805,-14.65235 z m 8.96094,1.24023 -4.19141,14.08985 0.19141,11.93554 4.83398,-17.58007 -0.10547,19.76562 3.57617,0.49609 -0.23633,-13.4414 -0.18359,-14.72656 z m 28.94921,0.0566 -5.46484,0.45899 -3.33594,11.06836 0.3086,3.68945 6.30468,12.9082 5.12305,-0.42968 -7.55664,-14.74805 z m 41.67188,0.23828 -4.13086,2.49805 1.375,2.27344 c 1.18857,1.96545 2.16773,4.22078 0.61523,5.48828 l 1.99805,3.30273 c 4.62806,-3.03601 3.69492,-7.56666 1.25,-11.73046 z m -52.15039,0.64258 -4.92188,0.41211 2.33008,27.7461 4.91992,-0.41211 z m -9.81836,0.26172 -3.76367,14.17969 0.17383,13.43359 7.81445,-27.02734 z m 45.66211,8.4961 -4.5586,1.59179 0.875,2.50781 c 0.75693,2.16857 1.25157,4.57661 -0.52929,5.4961 l 1.27148,3.64453 c 5.15534,-2.0146 5.17858,-6.63974 3.64649,-11.21875 z m -16.01563,11.9082 -4.48047,0.94336 0.92188,4.37304 4.48047,-0.94335 z"
           id="squawkpath"
           transform="matrix(0.28222223,0,0,0.28222223,119.56875,18.328004)" />
      </g>
    </g>
  </g>
</svg>
