<?xml version="1.0" encoding="UTF-8" standalone="no"?>
<!-- Created with Inkscape (http://www.inkscape.org/) -->

<svg
   xmlns:dc="http://purl.org/dc/elements/1.1/"
   xmlns:cc="http://creativecommons.org/ns#"
   xmlns:rdf="http://www.w3.org/1999/02/22-rdf-syntax-ns#"
   xmlns:svg="http://www.w3.org/2000/svg"
   xmlns="http://www.w3.org/2000/svg"
   xmlns:xlink="http://www.w3.org/1999/xlink"
   xmlns:sodipodi="http://sodipodi.sourceforge.net/DTD/sodipodi-0.dtd"
   xmlns:inkscape="http://www.inkscape.org/namespaces/inkscape"
   width="800"
   height="800"
   viewBox="0 0 225.77779 225.77778"
   id="svg3352"
   version="1.1"
   inkscape:version="0.48.5 r10040"
   sodipodi:docname="squawk-cc-sticker.svg"
   inkscape:export-filename="/home/ben/Projects/squawk/assets/squawk-cc-sticker.png"
   inkscape:export-xdpi="60.830002"
   inkscape:export-ydpi="60.830002">
  <defs
     id="defs3354">
    <linearGradient
       inkscape:collect="always"
       id="linearGradient4271">
      <stop
         style="stop-color:#ddfff8;stop-opacity:1"
         offset="0"
         id="stop4273" />
      <stop
         style="stop-color:#2ca089;stop-opacity:1"
         offset="1"
         id="stop4275" />
    </linearGradient>
    <radialGradient
       inkscape:collect="always"
       xlink:href="#linearGradient4271"
       id="radialGradient3142"
       gradientUnits="userSpaceOnUse"
       gradientTransform="matrix(0.57447091,-0.74659294,1.1537887,0.88778807,-324.16602,153.94135)"
       cx="161.33144"
       cy="73.450874"
       fx="161.33144"
       fy="73.450874"
       r="31.864775" />
    <path
       sodipodi:type="arc"
       style="color:#000000;fill:#ffffff;stroke:none;stroke-width:1.477;marker:none;visibility:visible;display:inline;overflow:visible;enable-background:accumulate"
       id="path3099-9"
       sodipodi:cx="-614.27039"
       sodipodi:cy="946.88843"
       sodipodi:rx="560.62231"
       sodipodi:ry="560.62231"
       d="m -53.648071,946.88843 a 560.62231,560.62231 0 1 1 -1121.244629,0 560.62231,560.62231 0 1 1 1121.244629,0 z"
       transform="matrix(-0.14295145,-0.2557892,0.2557892,-0.14295145,-52.500789,-57.236623)" />
    <radialGradient
       inkscape:collect="always"
       xlink:href="#linearGradient4271-8"
       id="radialGradient3142-2"
       gradientUnits="userSpaceOnUse"
       gradientTransform="matrix(0.57447091,-0.74659294,1.1537887,0.88778807,-324.16602,153.94135)"
       cx="161.33144"
       cy="73.450874"
       fx="161.33144"
       fy="73.450874"
       r="31.864775" />
    <linearGradient
       inkscape:collect="always"
       id="linearGradient4271-8">
      <stop
         style="stop-color:#ddfff8;stop-opacity:1"
         offset="0"
         id="stop4273-8" />
      <stop
         style="stop-color:#2ca089;stop-opacity:1"
         offset="1"
         id="stop4275-1" />
    </linearGradient>
    <radialGradient
       r="31.864775"
       fy="73.450874"
       fx="161.33144"
       cy="73.450874"
       cx="161.33144"
       gradientTransform="matrix(-0.72920237,-0.5963906,-0.92166574,1.126911,412.39059,39.387682)"
       gradientUnits="userSpaceOnUse"
       id="radialGradient3402"
       xlink:href="#linearGradient4271-8"
       inkscape:collect="always" />
    <radialGradient
       r="31.864775"
       fy="73.450874"
       fx="161.33144"
       cy="73.450874"
       cx="161.33144"
       gradientTransform="matrix(-0.72920237,-0.5963906,-0.92166574,1.126911,412.39059,39.387682)"
       gradientUnits="userSpaceOnUse"
       id="radialGradient3402-6"
       xlink:href="#linearGradient4271-8-4"
       inkscape:collect="always" />
    <linearGradient
       inkscape:collect="always"
       id="linearGradient4271-8-4">
      <stop
         style="stop-color:#ddfff8;stop-opacity:1"
         offset="0"
         id="stop4273-8-5" />
      <stop
         style="stop-color:#2ca089;stop-opacity:1"
         offset="1"
         id="stop4275-1-9" />
    </linearGradient>
    <radialGradient
       inkscape:collect="always"
       xlink:href="#linearGradient4271"
       id="radialGradient4042"
       gradientUnits="userSpaceOnUse"
       gradientTransform="matrix(0.57447091,-0.74659294,1.1537887,0.88778807,-324.16602,153.94135)"
       cx="161.33144"
       cy="73.450874"
       fx="161.33144"
       fy="73.450874"
       r="31.864775" />
  </defs>
  <sodipodi:namedview
     inkscape:document-units="mm"
     pagecolor="#9f89c9"
     bordercolor="#666666"
     borderopacity="1.0"
     inkscape:pageopacity="0.48627451"
     inkscape:pageshadow="2"
     inkscape:zoom="0.166554"
     inkscape:cx="1753.9798"
     inkscape:cy="734.805"
     inkscape:current-layer="layer1"
     id="namedview3356"
     showgrid="false"
     inkscape:window-width="1280"
     inkscape:window-height="734"
     inkscape:window-x="0"
     inkscape:window-y="27"
     inkscape:window-maximized="1"
     fit-margin-top="5"
     fit-margin-left="5"
     fit-margin-right="5"
     fit-margin-bottom="5"
     units="px"
     showguides="true"
     inkscape:guide-bbox="true"
     inkscape:snap-global="false"
     borderlayer="true"
     inkscape:showpageshadow="true" />
  <metadata
     id="metadata3358">
    <rdf:RDF>
      <cc:Work
         rdf:about="">
        <dc:format>image/svg+xml</dc:format>
        <dc:type
           rdf:resource="http://purl.org/dc/dcmitype/StillImage" />
        <dc:title />
      </cc:Work>
    </rdf:RDF>
  </metadata>
  <g
     inkscape:label="Layer 1"
     inkscape:groupmode="layer"
     id="layer1"
     transform="translate(-89.528475,88.194877)">
    <g
       id="g6867">
      <path
         id="path3984"
         transform="matrix(0.28222224,0,0,0.28222224,89.528475,-88.194882)"
         d="M 2171.4688 31.03125 C 2097.7352 31.03125 2028.8487 51.178064 1970.3125 86.125 A 19.389144 19.389144 0 0 0 1947.8438 74.53125 C 1934.5492 77.724248 1929.1752 86.605726 1925.0312 94.8125 C 1924.4773 92.600846 1923.5837 89.874253 1923.125 87.84375 C 1920.9387 78.166093 1921.2989 68.110726 1920.375 72.875 A 19.389144 19.389144 0 0 0 1886.8125 56.375 C 1882.4961 61.299006 1878.9539 66.818378 1875.8438 72.5625 C 1876.1843 67.856103 1876.5114 61.46103 1876.75 60.71875 A 19.389144 19.389144 0 0 0 1857.9062 35.46875 A 19.389144 19.389144 0 0 0 1846.2812 39.5625 C 1827.0687 54.604603 1814.9351 76.600872 1807.4375 99.34375 C 1799.9399 122.08663 1797.0601 145.60356 1800.4375 166.4375 A 19.389144 19.389144 0 0 0 1800.6875 167.5625 C 1805.8258 191.06226 1818.7137 209.968 1833.875 225.34375 C 1803.7351 278.69703 1786.5938 339.96123 1786.5938 405.125 C 1786.5938 611.73138 1958.9026 779.21875 2171.4688 779.21875 C 2384.0349 779.21875 2556.375 611.73138 2556.375 405.125 C 2556.375 198.51862 2384.0349 31.03125 2171.4688 31.03125 z M 1841.3125 124.71875 C 1843.3542 135.54666 1845.9333 145.79309 1849.7188 154.71875 C 1851.9002 159.8624 1854.3246 164.66182 1858.6875 169.4375 C 1860.7362 171.68007 1863.7153 174.10457 1867.3125 175.90625 C 1863.2803 180.95371 1859.3609 186.09496 1855.5938 191.34375 C 1847.413 181.59611 1841.331 171.04938 1838.75 159.8125 C 1837.3356 150.65849 1838.5588 137.81305 1841.3125 124.71875 z M 1897.5625 139.3125 C 1897.8119 140.0746 1898.0618 140.83167 1898.3125 141.59375 C 1898.0282 141.87213 1897.7209 142.12701 1897.4375 142.40625 C 1897.4687 141.38904 1897.5093 140.40678 1897.5625 139.3125 z "
         style="font-size:medium;font-style:normal;font-variant:normal;font-weight:normal;font-stretch:normal;text-indent:0;text-align:start;text-decoration:none;line-height:normal;letter-spacing:normal;word-spacing:normal;text-transform:none;direction:ltr;block-progression:tb;writing-mode:lr-tb;text-anchor:start;baseline-shift:baseline;color:#000000;fill:#ffffff;fill-opacity:1;fill-rule:nonzero;stroke:#000000;stroke-width:1.77165352;marker:none;visibility:visible;display:inline;overflow:visible;enable-background:accumulate;font-family:Sans;-inkscape-font-specification:Sans;stroke-miterlimit:4;stroke-dasharray:none" />
      <g
         id="g3988"
         transform="matrix(2.4257747,0,0,2.4257747,308.22661,-122.83347)"
         inkscape:export-xdpi="84.480003"
         inkscape:export-ydpi="84.480003">
        <g
           style="stroke-width:0.86170769"
           transform="matrix(0.97235845,0.6334362,-0.63343217,0.97236742,36.977201,-101.03459)"
           id="g3990">
          <path
             inkscape:connector-curvature="0"
             style="fill:url(#radialGradient4042);fill-opacity:1;stroke:none"
             d="m -118.43864,94.634567 a 30.743393,29.503176 0 0 1 -30.7434,29.503173 30.743393,29.503176 0 0 1 -30.74339,-29.503173 30.743393,29.503176 0 0 1 30.74339,-29.503175 30.743393,29.503176 0 0 1 30.7434,29.503175 z"
             id="path3992"
             transform="matrix(-0.97379894,0.22741068,0.22741068,0.97379894,0,0)" />
          <g
             style="stroke-width:0.86170769"
             id="g3994">
            <path
               sodipodi:nodetypes="ccccccccccccccc"
               inkscape:connector-curvature="0"
               id="path3996"
               d="m 182.42768,46.945518 c 0.3761,-2.152082 1.15332,-4.182116 -3.52058,-7.870813 -3.00563,-1.979383 -6.76841,-1.938553 -10.7083,-1.425157 -7.82012,1.47641 -13.87093,6.285666 -21.05639,9.964819 -2.95484,3.764867 -8.87089,4.753601 -6.92377,13.114062 -0.20264,3.074482 1.99781,6.1443 3.35259,8.352287 -0.49496,2.002254 -2.63937,2.277503 -2.7755,5.424933 10.6528,15.920348 32.54542,17.129103 45.50245,6.235105 -2.39354,-5.605341 -4.00806,-4.178904 -8.53236,-8.421345 l 0.58872,-1.989209 -2.24356,-4.804011 -5.54123,-5.716422 c 2.79918,-3.760902 6.17191,-7.602672 8.23495,-12.005085 1.61626,-2.025774 1.3029,-1.728721 3.62303,-0.859166 z"
               style="fill:#ffffff;fill-rule:evenodd;stroke:none" />
            <g
               style="stroke-width:0.86170769"
               id="g3998">
              <path
                 inkscape:connector-curvature="0"
                 id="path4000"
                 d="m -158.34304,63.176899 a 3.8741806,2.9256318 0 0 1 -3.87418,2.925632 3.8741806,2.9256318 0 0 1 -3.87418,-2.925632 3.8741806,2.9256318 0 0 1 3.87418,-2.925632 3.8741806,2.9256318 0 0 1 3.87418,2.925632 z"
                 inkscape:transform-center-y="1.1368464"
                 inkscape:transform-center-x="0.94157864"
                 style="fill:#5fd3bc;fill-opacity:1;stroke:none"
                 transform="matrix(-0.99743143,0.07162782,0.09951045,0.99503652,0,0)" />
              <path
                 inkscape:connector-curvature="0"
                 inkscape:label="#eye-black"
                 id="path4002"
                 d="m -150.63008,88.214348 a 2.0026522,1.6766392 0 0 1 -2.00266,1.676639 2.0026522,1.6766392 0 0 1 -2.00265,-1.676639 2.0026522,1.6766392 0 0 1 2.00265,-1.676639 2.0026522,1.6766392 0 0 1 2.00266,1.676639 z"
                 inkscape:transform-center-y="0.55887971"
                 inkscape:transform-center-x="0.55887971"
                 style="fill:#000000;fill-opacity:1;stroke:none"
                 transform="matrix(-0.97379894,0.22741068,0.22741068,0.97379894,0,0)" />
              <path
                 inkscape:connector-curvature="0"
                 id="path4004"
                 d="m -152.38306,87.934914 a 0.75357199,0.46573311 0 0 1 -0.75357,0.465733 0.75357199,0.46573311 0 0 1 -0.75357,-0.465733 0.75357199,0.46573311 0 0 1 0.75357,-0.465733 0.75357199,0.46573311 0 0 1 0.75357,0.465733 z"
                 style="fill:#ffffff;fill-opacity:1;stroke:none"
                 transform="matrix(-0.97379894,0.22741068,0.22741068,0.97379894,0,0)" />
            </g>
            <path
               sodipodi:nodetypes="ccccccccccccccc"
               inkscape:connector-curvature="0"
               id="path4006"
               d="m 140.95705,59.585272 c 1.13451,-0.724281 -0.0486,-1.835622 -0.24507,-2.774664 0.38514,-0.813676 1.55881,-1.256891 2.2366,-1.940288 1.38495,-1.328749 5.40546,-5.323017 4.96563,-6.671986 -0.31428,-0.226356 -0.6078,-1.046126 -1.05392,-0.791672 -2.27597,0.48205 -4.51951,1.188955 -6.84732,1.365157 -2.47402,0.292789 -6.40444,-1.634068 -8.55923,-4.737893 -1.23207,1.302274 1.40721,7.001073 2.45775,7.61583 -0.18554,0.438931 -7.44842,-5.341914 -8.06696,-6.864683 -0.40778,2.845274 1.57716,7.552484 3.06365,8.789591 -1.32668,1.125099 -6.82376,-5.279459 -7.46754,-7.638577 -1.22322,3.580886 0.43079,8.752728 2.69321,11.239974 2.02301,1.993859 4.91824,2.687521 7.66584,2.89506 2.84559,0.277261 5.69193,0.557793 8.54327,0.767364 0.3754,-0.331896 0.15908,-0.941876 0.61409,-1.253213 z"
               style="fill:#ffff00;fill-opacity:1;stroke:#ffff00;stroke-width:0.08617076;stroke-linecap:round;stroke-linejoin:round;stroke-miterlimit:4;stroke-dasharray:none" />
            <g
               style="stroke-width:0.86170769"
               id="g4008">
              <path
                 style="fill:#000000;fill-opacity:1;stroke:#000000;stroke-width:0.86170769;stroke-linecap:round;stroke-linejoin:round;stroke-miterlimit:4;stroke-dasharray:none"
                 d="m 179.65112,70.294249 c 2.04204,-1.386601 2.07771,-1.607565 0.18822,-1.166313 l -1.61315,0.376717 -0.65341,-2.099193 c -0.35937,-1.154554 -0.79903,-2.238893 -0.97701,-2.409639 -0.17799,-0.170747 -0.58774,-0.652319 -0.91056,-1.070159 -1.05227,-1.361974 -0.99347,-4.227799 0.11936,-5.863089 0.64165,-0.942581 3.65862,-2.180318 5.09785,-2.091438 1.6234,-0.08398 4.25727,-0.512438 5.13751,-1.318988 0.50368,-0.465458 1.05149,-0.82758 1.21737,-0.804716 0.16586,0.02287 0.78733,0.924678 1.38102,2.004027 0.59369,1.079347 1.14749,1.946558 1.23066,1.927135 0.28702,-0.06703 0.13332,-2.995126 -0.23598,-4.495939 -0.48025,-1.951371 -1.4426,-3.216746 -3.46081,-4.550144 -1.99899,-1.320694 -6.33961,-2.870425 -6.97718,-2.491054 -0.24757,0.147299 -1.30918,1.687598 -2.35914,3.422876 -1.04996,1.735277 -2.99622,4.574197 -4.32503,6.30871 -1.32882,1.734516 -2.40419,3.204345 -2.38972,3.266291 0.0145,0.06194 1.18958,1.304903 2.61137,2.762127 2.36135,2.420198 2.68902,2.868079 3.78623,5.175193 0.73548,1.546492 1.2157,2.8561 1.23866,3.377924 0.0206,0.468723 0.13026,0.822498 0.24367,0.786155 0.11342,-0.03635 0.85593,-0.507259 1.65002,-1.046469 z"
                 id="path4010"
                 inkscape:connector-curvature="0"
                 sodipodi:nodetypes="csccccccccsccccsccsccccc" />
              <path
                 sodipodi:nodetypes="scccccccs"
                 style="fill:#d40000;fill-opacity:1;stroke:none"
                 d="m 179.33111,66.123795 c -1.01346,-3.599947 -1.1763,-6.367925 -0.43822,-8.008777 0.31901,-0.709178 0.51484,-1.329911 0.43517,-1.379405 -0.36724,-0.228197 -3.29722,1.277875 -3.65397,1.878224 -1.10778,1.864134 -0.89206,4.282847 0.52662,5.904952 0.59634,0.681832 0.97031,1.395147 1.16647,2.224935 0.47775,2.019394 0.72352,2.38348 1.77023,2.139043 l 0.91055,-0.212641 z"
                 id="path4012"
                 inkscape:connector-curvature="0" />
            </g>
          </g>
          <path
             inkscape:connector-curvature="0"
             style="font-size:9.03111172px;font-style:normal;font-variant:normal;font-weight:bold;font-stretch:normal;line-height:125%;letter-spacing:0.61529839px;word-spacing:0px;fill:#000000;fill-opacity:1;stroke:none;font-family:Oswald Stencil;-inkscape-font-specification:Oswald Stencil Bold"
             d="m 99.693359,179.20117 c -1.29373,0.045 -2.620189,0.4984 -3.898437,1.40039 -2.936303,2.07201 -3.354844,4.89257 -3.650391,7.64453 l -0.220703,1.53125 4.638672,0.80078 c 0.102402,-0.72233 0.208198,-1.46561 0.253906,-1.86132 0.191693,-1.76081 0.670104,-3.36112 2.214844,-4.45118 1.12348,-0.79276 2.48178,-0.92818 3.39844,0.12696 l 3.10156,-2.18946 c -1.61411,-2.01638 -3.68167,-3.0769 -5.837891,-3.00195 z m 6.300781,3.63281 -3.15234,2.22461 c 0.47211,1.29236 -0.65869,2.64372 -1.77539,3.52735 -0.26823,0.18917 -0.55534,0.35347 -0.78516,0.51562 l 3.53125,3.64649 0.47266,-0.33203 c 3.08873,-2.37084 3.85233,-6.4092 1.70898,-9.58204 z m -21.349609,5.59766 c -3.195425,2.59909 -5.126948,6.58332 -2.601562,10.5957 l 3.166015,-2.23437 c -0.61696,-1.68735 1.252222,-3.4845 3.109375,-4.89063 z m 7.183594,2.10352 -0.113281,0.84375 c -0.307559,2.30143 -1.019686,4.86864 -2.921875,6.21093 -1.148988,0.81079 -2.30088,0.99442 -3.197266,-0.11328 l -3.115234,2.19727 c 2.237208,2.95359 6.052542,3.97093 9.24414,1.71875 3.3193,-2.34227 4.131263,-5.61143 4.619141,-9.2832 l 0.08789,-0.76954 z m 18.335935,0.54492 c -2.58791,-0.0698 -5.06177,1.51687 -7.30468,3.89844 l -6.759771,7.17773 c -3.652972,3.87875 -4.804444,8.24546 -0.998047,12.06641 l 2.667969,-2.83204 c -1.353472,-1.63955 -0.197396,-3.59873 1.173828,-5.05468 l 8.345701,-8.85938 c 1.36049,-1.44458 3.25696,-2.72938 4.97461,-1.47656 l 2.65625,-2.82031 c -1.60939,-1.41911 -3.20311,-2.05775 -4.75586,-2.09961 z m 5.32422,2.63476 -2.64453,2.81055 c 1.45318,1.64762 0.24046,3.617 -1.15234,5.0957 l -8.34571,8.86133 c -1.41406,1.50146 -3.25042,2.88328 -5.017575,1.45508 l -2.658203,2.82031 c 0.306496,0.26713 0.657495,0.5326 0.996094,0.76563 -0.258662,1.68789 -0.267748,3.99997 2.146484,6.35937 l 2.11133,-2.24219 c -0.33201,-0.37692 -1.52257,-1.73307 -1.257814,-2.85742 3.181074,0.29151 5.935674,-1.49333 8.099604,-3.79101 l 6.6836,-7.09766 c 3.61013,-3.83325 5.15128,-8.11367 1.03906,-12.17969 z m 5.17578,5.57422 -9.22461,15.7461 c -2.64593,4.51641 -4.06529,9.13672 1.40235,12.53906 l 1.9414,-3.31641 c -1.84989,-1.35535 -1.12392,-3.21366 0.9375,-6.73242 l 9.2168,-15.73242 z m 92.41406,1.32227 c -1.24209,-0.0636 -2.58448,0.26391 -4.03124,1.07031 l 2.0039,3.31641 c 1.8703,-0.80234 3.39675,1.17757 4.54492,3.07617 l 1.22852,2.0332 4.14648,-2.50586 -1.09961,-1.81836 c -1.81213,-2.99664 -4.06035,-5.03191 -6.79297,-5.17187 z m -4.70117,1.47461 c -4.79654,3.11966 -4.13409,7.59678 -1.43359,12.0625 l 5.04492,8.34179 c 2.64388,4.37214 6.32807,7.11155 11.33203,4.30469 l -1.99023,-3.28906 c -1.93964,0.89905 -3.46733,-0.84297 -4.49414,-2.54102 l -6.29883,-10.41601 c -1.02685,-1.69804 -1.85911,-3.86 -0.16211,-5.16016 z m -78.34179,2.69336 -9.21875,15.73242 c -2.1088,3.59964 -3.20446,5.25717 -5.36524,4.1543 l -1.93555,3.30273 c 5.65261,3.1485 8.89303,-0.40389 11.55469,-4.94727 l 9.22461,-15.74804 z m 67.96679,3.00976 c -0.80925,-0.009 -1.68549,0.12387 -2.63476,0.41797 l 1.27734,3.6582 c 1.99573,-0.39871 3.07935,1.85442 3.81055,3.94922 l 0.7832,2.24219 4.57227,-1.5957 -0.69922,-2.00782 c -1.3639,-3.90747 -3.60262,-6.6237 -7.10938,-6.66406 z m -59.81836,0.64063 -14.89648,24.2539 4.49023,1.59766 8.85938,-15.67187 5.10937,-8.91211 z m 56.44532,0.0352 c -5.33746,2.06165 -5.61439,6.57669 -3.89453,11.50391 l 3.21289,9.20508 c 1.68381,4.82395 4.72143,8.26547 10.19726,6.55273 l -1.26562,-3.6289 c -2.08354,0.47901 -3.2191,-1.54249 -3.87305,-3.41602 l -4.01172,-11.49023 c -0.65395,-1.87353 -1.02283,-4.16241 0.90625,-5.08399 z m -52.11719,1.50391 -5.2793,9.20117 -1.50976,8.25196 -2.67969,-0.95313 -1.36524,2.58203 3.41602,1.21484 -0.95703,6.27735 4.60742,1.63867 z m 2.03711,1.32422 0.20312,28.13672 4.00782,0.55469 -0.23438,-13.45508 0.24805,-14.65235 z m 8.96094,1.24023 -4.19141,14.08985 0.19141,11.93554 4.83398,-17.58007 -0.10547,19.76562 3.57617,0.49609 -0.23633,-13.4414 -0.18359,-14.72656 z m 28.94921,0.0566 -5.46484,0.45899 -3.33594,11.06836 0.3086,3.68945 6.30468,12.9082 5.12305,-0.42968 -7.55664,-14.74805 z m 41.67188,0.23828 -4.13086,2.49805 1.375,2.27344 c 1.18857,1.96545 2.16773,4.22078 0.61523,5.48828 l 1.99805,3.30273 c 4.62806,-3.03601 3.69492,-7.56666 1.25,-11.73046 z m -52.15039,0.64258 -4.92188,0.41211 2.33008,27.7461 4.91992,-0.41211 z m -9.81836,0.26172 -3.76367,14.17969 0.17383,13.43359 7.81445,-27.02734 z m 45.66211,8.4961 -4.5586,1.59179 0.875,2.50781 c 0.75693,2.16857 1.25157,4.57661 -0.52929,5.4961 l 1.27148,3.64453 c 5.15534,-2.0146 5.17858,-6.63974 3.64649,-11.21875 z m -16.01563,11.9082 -4.48047,0.94336 0.92188,4.37304 4.48047,-0.94335 z"
             id="path4014"
             transform="matrix(0.28222223,0,0,0.28222223,119.56875,18.328004)" />
        </g>
      </g>
      <g
         id="g4016"
         transform="matrix(0.99871294,0.05071944,-0.05071944,0.99871294,499.37821,-10.375178)">
        <g
           id="g4018">
          <text
             xml:space="preserve"
             style="font-size:7.45197964px;font-style:normal;font-variant:normal;font-weight:900;font-stretch:normal;line-height:125%;letter-spacing:0px;word-spacing:0px;fill:#37a690;fill-opacity:1;stroke:none;font-family:Nexa Rust Slab;-inkscape-font-specification:Nexa Rust Slab Heavy"
             id="text4020"
             sodipodi:linespacing="125%"><textPath
               style="font-size:13.54666710000000052px;font-style:normal;font-variant:normal;font-weight:bold;font-stretch:normal;letter-spacing:-0.39511113px;fill:#37a690;fill-opacity:1;font-family:Oswald Stencil;-inkscape-font-specification:Oswald Stencil Bold"
               xlink:href="#path3247"
               id="textPath4022">Attacking The wholesale surveillance of Australian citizens</textPath></text>
          <path
             transform="matrix(-0.16148908,-0.03102014,0.03225727,-0.15529569,74.24636,153.52685)"
             d="m -53.648071,946.88843 c 0,309.62317 -250.999159,560.62227 -560.622319,560.62227 -309.62315,0 -560.62231,-250.9991 -560.62231,-560.62227 0,-309.62316 250.99916,-560.62232 560.62231,-560.62232 309.62316,0 560.622319,250.99916 560.622319,560.62232 z"
             sodipodi:ry="560.62231"
             sodipodi:rx="560.62231"
             sodipodi:cy="946.88843"
             sodipodi:cx="-614.27039"
             id="path4026"
             style="color:#000000;fill:none;stroke:none;stroke-width:1.477;marker:none;visibility:visible;display:inline;overflow:visible;enable-background:accumulate"
             sodipodi:type="arc" />
        </g>
      </g>
      <g
         id="g4028"
         transform="matrix(0.9846219,0.17469893,-0.17469893,0.9846219,505.73352,-35.243436)">
        <text
           sodipodi:linespacing="125%"
           id="text4030"
           style="font-size:8.27616214999999933px;font-style:normal;font-variant:normal;font-weight:900;font-stretch:normal;line-height:125%;letter-spacing:0px;word-spacing:0px;fill:#37a690;fill-opacity:1;stroke:none;font-family:Nexa Rust Slab;-inkscape-font-specification:Nexa Rust Slab Heavy"
           xml:space="preserve"><textPath
             id="textPath4032"
             xlink:href="#path3099"><tspan
   id="tspan4034"
   style="font-size:13.54666710000000052px;font-style:normal;font-variant:normal;font-weight:bold;font-stretch:normal;font-family:Oswald Stencil;-inkscape-font-specification:Oswald Stencil Bold;fill:#37a690;fill-opacity:1"> under the data retention program</tspan></textPath></text>
        <path
           transform="matrix(-0.18241201,0.03503919,0.0364366,0.17541619,57.436669,-119.04211)"
           d="m -53.648071,946.88843 c 0,309.62317 -250.999159,560.62227 -560.622319,560.62227 -309.62315,0 -560.62231,-250.9991 -560.62231,-560.62227 0,-309.62316 250.99916,-560.62232 560.62231,-560.62232 309.62316,0 560.622319,250.99916 560.622319,560.62232 z"
           sodipodi:ry="560.62231"
           sodipodi:rx="560.62231"
           sodipodi:cy="946.88843"
           sodipodi:cx="-614.27039"
           id="path4036"
           style="opacity:0.63999999;color:#000000;fill:none;stroke:none;stroke-width:1.477;marker:none;visibility:visible;display:inline;overflow:visible;enable-background:accumulate"
           sodipodi:type="arc" />
      </g>
      <path
         sodipodi:type="arc"
         style="color:#000000;fill:#37a690;fill-opacity:1;fill-rule:nonzero;stroke:none;stroke-width:1.47700000000000009;marker:none;visibility:visible;display:inline;overflow:visible;enable-background:accumulate"
         id="path4038"
         sodipodi:cx="-167.87123"
         sodipodi:cy="284.51663"
         sodipodi:rx="13.565351"
         sodipodi:ry="13.565351"
         d="m -154.30588,284.51663 a 13.565351,13.565351 0 1 1 -27.1307,0 13.565351,13.565351 0 1 1 27.1307,0 z"
         transform="matrix(0.28222224,0,0,0.28222224,651.7791,-65.224218)" />
      <path
         transform="matrix(0.28222224,0,0,0.28222224,804.26653,23.787102)"
         d="m -154.30588,284.51663 a 13.565351,13.565351 0 1 1 -27.1307,0 13.565351,13.565351 0 1 1 27.1307,0 z"
         sodipodi:ry="13.565351"
         sodipodi:rx="13.565351"
         sodipodi:cy="284.51663"
         sodipodi:cx="-167.87123"
         id="path4040"
         style="color:#000000;fill:#37a690;fill-opacity:1;fill-rule:nonzero;stroke:none;stroke-width:1.47700000000000009;marker:none;visibility:visible;display:inline;overflow:visible;enable-background:accumulate"
         sodipodi:type="arc" />
    </g>
    <g
       id="g6804">
      <path
         id="path3560"
         transform="matrix(0.28222224,0,0,0.28222224,89.528475,-88.194882)"
         d="M 1279.6875 39.65625 C 1205.9447 39.899455 1137.113 60.289218 1078.6875 95.4375 A 19.389144 19.389144 0 0 0 1056.125 83.96875 C 1042.8334 87.207446 1037.555 96.119402 1033.4375 104.34375 C 1032.8727 102.12097 1031.9055 99.383859 1031.4375 97.34375 C 1029.2193 87.673353 1029.6894 77.545207 1028.7812 82.3125 A 19.389144 19.389144 0 0 0 995.125 65.90625 C 990.82176 70.848089 987.37388 76.428461 984.28125 82.1875 C 984.60617 77.481978 984.82644 71.086608 985.0625 70.34375 A 19.389144 19.389144 0 0 0 966.125 45.09375 A 19.389144 19.389144 0 0 0 954.59375 49.1875 C 935.43087 64.292887 923.26627 86.451271 915.84375 109.21875 C 908.42123 131.98623 905.64771 155.48982 909.09375 176.3125 A 19.389144 19.389144 0 0 0 909.3125 177.40625 C 914.53198 200.90539 927.50216 219.77366 942.71875 235.09375 C 912.75788 288.54416 895.81635 349.87125 896.03125 415.03125 C 896.71264 621.6365 1069.5912 788.54479 1282.1562 787.84375 C 1494.7213 787.14271 1666.4939 619.074 1665.8125 412.46875 C 1665.1311 205.8635 1492.2525 38.955207 1279.6875 39.65625 z M 949.9375 134.5625 C 952.01055 145.32355 954.57895 155.59961 958.375 164.46875 C 960.57344 169.60518 962.96514 174.30124 967.34375 179.0625 C 969.39503 181.29305 972.38946 183.69395 976 185.5 C 971.97007 190.57821 968.07491 195.75118 964.3125 201.03125 C 956.09945 191.32196 950.02818 180.80747 947.40625 169.5625 C 945.96515 160.43552 947.24406 147.63244 949.9375 134.5625 z M 1006.0938 148.84375 C 1006.3501 149.61876 1006.6172 150.38319 1006.875 151.15625 C 1006.5865 151.44072 1006.2876 151.71464 1006 152 C 1006.0255 150.95846 1006.0428 149.9668 1006.0938 148.84375 z "
         style="font-size:medium;font-style:normal;font-variant:normal;font-weight:normal;font-stretch:normal;text-indent:0;text-align:start;text-decoration:none;line-height:normal;letter-spacing:normal;word-spacing:normal;text-transform:none;direction:ltr;block-progression:tb;writing-mode:lr-tb;text-anchor:start;baseline-shift:baseline;color:#000000;fill:#ffffff;fill-opacity:1;fill-rule:nonzero;stroke:#000000;stroke-width:1.77165352;marker:none;visibility:visible;display:inline;overflow:visible;enable-background:accumulate;font-family:Sans;-inkscape-font-specification:Sans;stroke-miterlimit:4;stroke-dasharray:none" />
      <g
         inkscape:export-ydpi="84.480003"
         inkscape:export-xdpi="84.480003"
         transform="matrix(2.4257615,-0.00800027,0.00800027,2.4257615,56.404103,-119.09789)"
         id="g4304">
        <g
           id="g4264"
           transform="matrix(0.97235845,0.6334362,-0.63343217,0.97236742,36.977201,-101.03459)"
           style="stroke-width:0.86170769">
          <path
             transform="matrix(-0.97379894,0.22741068,0.22741068,0.97379894,0,0)"
             id="circle"
             d="m -118.43864,94.634567 a 30.743393,29.503176 0 0 1 -30.7434,29.503173 30.743393,29.503176 0 0 1 -30.74339,-29.503173 30.743393,29.503176 0 0 1 30.74339,-29.503175 30.743393,29.503176 0 0 1 30.7434,29.503175 z"
             style="fill:url(#radialGradient3142);fill-opacity:1;stroke:none"
             inkscape:connector-curvature="0" />
          <g
             id="group-cocky"
             style="stroke-width:0.86170769">
            <path
               style="fill:#ffffff;fill-rule:evenodd;stroke:none"
               d="m 182.42768,46.945518 c 0.3761,-2.152082 1.15332,-4.182116 -3.52058,-7.870813 -3.00563,-1.979383 -6.76841,-1.938553 -10.7083,-1.425157 -7.82012,1.47641 -13.87093,6.285666 -21.05639,9.964819 -2.95484,3.764867 -8.87089,4.753601 -6.92377,13.114062 -0.20264,3.074482 1.99781,6.1443 3.35259,8.352287 -0.49496,2.002254 -2.63937,2.277503 -2.7755,5.424933 10.6528,15.920348 32.54542,17.129103 45.50245,6.235105 -2.39354,-5.605341 -4.00806,-4.178904 -8.53236,-8.421345 l 0.58872,-1.989209 -2.24356,-4.804011 -5.54123,-5.716422 c 2.79918,-3.760902 6.17191,-7.602672 8.23495,-12.005085 1.61626,-2.025774 1.3029,-1.728721 3.62303,-0.859166 z"
               id="head-white"
               inkscape:connector-curvature="0"
               sodipodi:nodetypes="ccccccccccccccc" />
            <g
               id="group-eye"
               style="stroke-width:0.86170769">
              <path
                 transform="matrix(-0.99743143,0.07162782,0.09951045,0.99503652,0,0)"
                 style="fill:#5fd3bc;fill-opacity:1;stroke:none"
                 inkscape:transform-center-x="0.94157864"
                 inkscape:transform-center-y="1.1368464"
                 d="m -158.34304,63.176899 a 3.8741806,2.9256318 0 0 1 -3.87418,2.925632 3.8741806,2.9256318 0 0 1 -3.87418,-2.925632 3.8741806,2.9256318 0 0 1 3.87418,-2.925632 3.8741806,2.9256318 0 0 1 3.87418,2.925632 z"
                 id="eye-green"
                 inkscape:connector-curvature="0" />
              <path
                 transform="matrix(-0.97379894,0.22741068,0.22741068,0.97379894,0,0)"
                 style="fill:#000000;fill-opacity:1;stroke:none"
                 inkscape:transform-center-x="0.55887971"
                 inkscape:transform-center-y="0.55887971"
                 d="m -150.63008,88.214348 a 2.0026522,1.6766392 0 0 1 -2.00266,1.676639 2.0026522,1.6766392 0 0 1 -2.00265,-1.676639 2.0026522,1.6766392 0 0 1 2.00265,-1.676639 2.0026522,1.6766392 0 0 1 2.00266,1.676639 z"
                 id="eye-black"
                 inkscape:label="#eye-black"
                 inkscape:connector-curvature="0" />
              <path
                 transform="matrix(-0.97379894,0.22741068,0.22741068,0.97379894,0,0)"
                 style="fill:#ffffff;fill-opacity:1;stroke:none"
                 d="m -152.38306,87.934914 a 0.75357199,0.46573311 0 0 1 -0.75357,0.465733 0.75357199,0.46573311 0 0 1 -0.75357,-0.465733 0.75357199,0.46573311 0 0 1 0.75357,-0.465733 0.75357199,0.46573311 0 0 1 0.75357,0.465733 z"
                 id="eye-white"
                 inkscape:connector-curvature="0" />
            </g>
            <path
               style="fill:#ffff00;fill-opacity:1;stroke:#ffff00;stroke-width:0.08617076;stroke-linecap:round;stroke-linejoin:round;stroke-miterlimit:4;stroke-dasharray:none"
               d="m 140.95705,59.585272 c 1.13451,-0.724281 -0.0486,-1.835622 -0.24507,-2.774664 0.38514,-0.813676 1.55881,-1.256891 2.2366,-1.940288 1.38495,-1.328749 5.40546,-5.323017 4.96563,-6.671986 -0.31428,-0.226356 -0.6078,-1.046126 -1.05392,-0.791672 -2.27597,0.48205 -4.51951,1.188955 -6.84732,1.365157 -2.47402,0.292789 -6.40444,-1.634068 -8.55923,-4.737893 -1.23207,1.302274 1.40721,7.001073 2.45775,7.61583 -0.18554,0.438931 -7.44842,-5.341914 -8.06696,-6.864683 -0.40778,2.845274 1.57716,7.552484 3.06365,8.789591 -1.32668,1.125099 -6.82376,-5.279459 -7.46754,-7.638577 -1.22322,3.580886 0.43079,8.752728 2.69321,11.239974 2.02301,1.993859 4.91824,2.687521 7.66584,2.89506 2.84559,0.277261 5.69193,0.557793 8.54327,0.767364 0.3754,-0.331896 0.15908,-0.941876 0.61409,-1.253213 z"
               id="crest-yellow"
               inkscape:connector-curvature="0"
               sodipodi:nodetypes="ccccccccccccccc" />
            <g
               id="group-beak"
               style="stroke-width:0.86170769">
              <path
                 sodipodi:nodetypes="csccccccccsccccsccsccccc"
                 inkscape:connector-curvature="0"
                 id="beak-black"
                 d="m 179.65112,70.294249 c 2.04204,-1.386601 2.07771,-1.607565 0.18822,-1.166313 l -1.61315,0.376717 -0.65341,-2.099193 c -0.35937,-1.154554 -0.79903,-2.238893 -0.97701,-2.409639 -0.17799,-0.170747 -0.58774,-0.652319 -0.91056,-1.070159 -1.05227,-1.361974 -0.99347,-4.227799 0.11936,-5.863089 0.64165,-0.942581 3.65862,-2.180318 5.09785,-2.091438 1.6234,-0.08398 4.25727,-0.512438 5.13751,-1.318988 0.50368,-0.465458 1.05149,-0.82758 1.21737,-0.804716 0.16586,0.02287 0.78733,0.924678 1.38102,2.004027 0.59369,1.079347 1.14749,1.946558 1.23066,1.927135 0.28702,-0.06703 0.13332,-2.995126 -0.23598,-4.495939 -0.48025,-1.951371 -1.4426,-3.216746 -3.46081,-4.550144 -1.99899,-1.320694 -6.33961,-2.870425 -6.97718,-2.491054 -0.24757,0.147299 -1.30918,1.687598 -2.35914,3.422876 -1.04996,1.735277 -2.99622,4.574197 -4.32503,6.30871 -1.32882,1.734516 -2.40419,3.204345 -2.38972,3.266291 0.0145,0.06194 1.18958,1.304903 2.61137,2.762127 2.36135,2.420198 2.68902,2.868079 3.78623,5.175193 0.73548,1.546492 1.2157,2.8561 1.23866,3.377924 0.0206,0.468723 0.13026,0.822498 0.24367,0.786155 0.11342,-0.03635 0.85593,-0.507259 1.65002,-1.046469 z"
                 style="fill:#000000;fill-opacity:1;stroke:#000000;stroke-width:0.86170769;stroke-linecap:round;stroke-linejoin:round;stroke-miterlimit:4;stroke-dasharray:none" />
              <path
                 inkscape:connector-curvature="0"
                 id="beak-red"
                 d="m 179.33111,66.123795 c -1.01346,-3.599947 -1.1763,-6.367925 -0.43822,-8.008777 0.31901,-0.709178 0.51484,-1.329911 0.43517,-1.379405 -0.36724,-0.228197 -3.29722,1.277875 -3.65397,1.878224 -1.10778,1.864134 -0.89206,4.282847 0.52662,5.904952 0.59634,0.681832 0.97031,1.395147 1.16647,2.224935 0.47775,2.019394 0.72352,2.38348 1.77023,2.139043 l 0.91055,-0.212641 z"
                 style="fill:#d40000;fill-opacity:1;stroke:none"
                 sodipodi:nodetypes="scccccccs" />
            </g>
          </g>
          <path
             transform="matrix(0.28222223,0,0,0.28222223,119.56875,18.328004)"
             id="squawkpath"
             d="m 99.693359,179.20117 c -1.29373,0.045 -2.620189,0.4984 -3.898437,1.40039 -2.936303,2.07201 -3.354844,4.89257 -3.650391,7.64453 l -0.220703,1.53125 4.638672,0.80078 c 0.102402,-0.72233 0.208198,-1.46561 0.253906,-1.86132 0.191693,-1.76081 0.670104,-3.36112 2.214844,-4.45118 1.12348,-0.79276 2.48178,-0.92818 3.39844,0.12696 l 3.10156,-2.18946 c -1.61411,-2.01638 -3.68167,-3.0769 -5.837891,-3.00195 z m 6.300781,3.63281 -3.15234,2.22461 c 0.47211,1.29236 -0.65869,2.64372 -1.77539,3.52735 -0.26823,0.18917 -0.55534,0.35347 -0.78516,0.51562 l 3.53125,3.64649 0.47266,-0.33203 c 3.08873,-2.37084 3.85233,-6.4092 1.70898,-9.58204 z m -21.349609,5.59766 c -3.195425,2.59909 -5.126948,6.58332 -2.601562,10.5957 l 3.166015,-2.23437 c -0.61696,-1.68735 1.252222,-3.4845 3.109375,-4.89063 z m 7.183594,2.10352 -0.113281,0.84375 c -0.307559,2.30143 -1.019686,4.86864 -2.921875,6.21093 -1.148988,0.81079 -2.30088,0.99442 -3.197266,-0.11328 l -3.115234,2.19727 c 2.237208,2.95359 6.052542,3.97093 9.24414,1.71875 3.3193,-2.34227 4.131263,-5.61143 4.619141,-9.2832 l 0.08789,-0.76954 z m 18.335935,0.54492 c -2.58791,-0.0698 -5.06177,1.51687 -7.30468,3.89844 l -6.759771,7.17773 c -3.652972,3.87875 -4.804444,8.24546 -0.998047,12.06641 l 2.667969,-2.83204 c -1.353472,-1.63955 -0.197396,-3.59873 1.173828,-5.05468 l 8.345701,-8.85938 c 1.36049,-1.44458 3.25696,-2.72938 4.97461,-1.47656 l 2.65625,-2.82031 c -1.60939,-1.41911 -3.20311,-2.05775 -4.75586,-2.09961 z m 5.32422,2.63476 -2.64453,2.81055 c 1.45318,1.64762 0.24046,3.617 -1.15234,5.0957 l -8.34571,8.86133 c -1.41406,1.50146 -3.25042,2.88328 -5.017575,1.45508 l -2.658203,2.82031 c 0.306496,0.26713 0.657495,0.5326 0.996094,0.76563 -0.258662,1.68789 -0.267748,3.99997 2.146484,6.35937 l 2.11133,-2.24219 c -0.33201,-0.37692 -1.52257,-1.73307 -1.257814,-2.85742 3.181074,0.29151 5.935674,-1.49333 8.099604,-3.79101 l 6.6836,-7.09766 c 3.61013,-3.83325 5.15128,-8.11367 1.03906,-12.17969 z m 5.17578,5.57422 -9.22461,15.7461 c -2.64593,4.51641 -4.06529,9.13672 1.40235,12.53906 l 1.9414,-3.31641 c -1.84989,-1.35535 -1.12392,-3.21366 0.9375,-6.73242 l 9.2168,-15.73242 z m 92.41406,1.32227 c -1.24209,-0.0636 -2.58448,0.26391 -4.03124,1.07031 l 2.0039,3.31641 c 1.8703,-0.80234 3.39675,1.17757 4.54492,3.07617 l 1.22852,2.0332 4.14648,-2.50586 -1.09961,-1.81836 c -1.81213,-2.99664 -4.06035,-5.03191 -6.79297,-5.17187 z m -4.70117,1.47461 c -4.79654,3.11966 -4.13409,7.59678 -1.43359,12.0625 l 5.04492,8.34179 c 2.64388,4.37214 6.32807,7.11155 11.33203,4.30469 l -1.99023,-3.28906 c -1.93964,0.89905 -3.46733,-0.84297 -4.49414,-2.54102 l -6.29883,-10.41601 c -1.02685,-1.69804 -1.85911,-3.86 -0.16211,-5.16016 z m -78.34179,2.69336 -9.21875,15.73242 c -2.1088,3.59964 -3.20446,5.25717 -5.36524,4.1543 l -1.93555,3.30273 c 5.65261,3.1485 8.89303,-0.40389 11.55469,-4.94727 l 9.22461,-15.74804 z m 67.96679,3.00976 c -0.80925,-0.009 -1.68549,0.12387 -2.63476,0.41797 l 1.27734,3.6582 c 1.99573,-0.39871 3.07935,1.85442 3.81055,3.94922 l 0.7832,2.24219 4.57227,-1.5957 -0.69922,-2.00782 c -1.3639,-3.90747 -3.60262,-6.6237 -7.10938,-6.66406 z m -59.81836,0.64063 -14.89648,24.2539 4.49023,1.59766 8.85938,-15.67187 5.10937,-8.91211 z m 56.44532,0.0352 c -5.33746,2.06165 -5.61439,6.57669 -3.89453,11.50391 l 3.21289,9.20508 c 1.68381,4.82395 4.72143,8.26547 10.19726,6.55273 l -1.26562,-3.6289 c -2.08354,0.47901 -3.2191,-1.54249 -3.87305,-3.41602 l -4.01172,-11.49023 c -0.65395,-1.87353 -1.02283,-4.16241 0.90625,-5.08399 z m -52.11719,1.50391 -5.2793,9.20117 -1.50976,8.25196 -2.67969,-0.95313 -1.36524,2.58203 3.41602,1.21484 -0.95703,6.27735 4.60742,1.63867 z m 2.03711,1.32422 0.20312,28.13672 4.00782,0.55469 -0.23438,-13.45508 0.24805,-14.65235 z m 8.96094,1.24023 -4.19141,14.08985 0.19141,11.93554 4.83398,-17.58007 -0.10547,19.76562 3.57617,0.49609 -0.23633,-13.4414 -0.18359,-14.72656 z m 28.94921,0.0566 -5.46484,0.45899 -3.33594,11.06836 0.3086,3.68945 6.30468,12.9082 5.12305,-0.42968 -7.55664,-14.74805 z m 41.67188,0.23828 -4.13086,2.49805 1.375,2.27344 c 1.18857,1.96545 2.16773,4.22078 0.61523,5.48828 l 1.99805,3.30273 c 4.62806,-3.03601 3.69492,-7.56666 1.25,-11.73046 z m -52.15039,0.64258 -4.92188,0.41211 2.33008,27.7461 4.91992,-0.41211 z m -9.81836,0.26172 -3.76367,14.17969 0.17383,13.43359 7.81445,-27.02734 z m 45.66211,8.4961 -4.5586,1.59179 0.875,2.50781 c 0.75693,2.16857 1.25157,4.57661 -0.52929,5.4961 l 1.27148,3.64453 c 5.15534,-2.0146 5.17858,-6.63974 3.64649,-11.21875 z m -16.01563,11.9082 -4.48047,0.94336 0.92188,4.37304 4.48047,-0.94335 z"
             style="font-size:9.03111172px;font-style:normal;font-variant:normal;font-weight:bold;font-stretch:normal;line-height:125%;letter-spacing:0.61529839px;word-spacing:0px;fill:#000000;fill-opacity:1;stroke:none;font-family:Oswald Stencil;-inkscape-font-specification:Oswald Stencil Bold"
             inkscape:connector-curvature="0" />
        </g>
      </g>
      <g
         transform="matrix(0.65538655,0.75529363,-0.75529363,0.65538655,337.31145,-139.60896)"
         id="g3353">
        <g
           id="g3371">
          <text
             sodipodi:linespacing="125%"
             id="text3101"
             style="font-size:7.45197964px;font-style:normal;font-variant:normal;font-weight:900;font-stretch:normal;line-height:125%;letter-spacing:0px;word-spacing:0px;fill:#37a690;fill-opacity:1;stroke:none;font-family:Nexa Rust Slab;-inkscape-font-specification:Nexa Rust Slab Heavy"
             xml:space="preserve"><textPath
               style="letter-spacing:1.41111124px;fill:#37a690;fill-opacity:1"
               id="textPath3249"
               xlink:href="#path3247"><tspan
   dx="0"
   style="font-size:13.5466671px;font-style:normal;font-variant:normal;font-weight:bold;font-stretch:normal;letter-spacing:1.41111124px;fill:#37a690;fill-opacity:1;font-family:Oswald Stencil;-inkscape-font-specification:Oswald Stencil Bold"
   id="tspan3105">Distributed Disruption</tspan></textPath></text>
          <path
             sodipodi:type="arc"
             style="color:#000000;fill:none;stroke:none;stroke-width:1.477;marker:none;visibility:visible;display:inline;overflow:visible;enable-background:accumulate"
             id="path3247"
             sodipodi:cx="-614.27039"
             sodipodi:cy="946.88843"
             sodipodi:rx="560.62231"
             sodipodi:ry="560.62231"
             d="m -53.648071,946.88843 c 0,309.62317 -250.999159,560.62227 -560.622319,560.62227 -309.62315,0 -560.62231,-250.9991 -560.62231,-560.62227 0,-309.62316 250.99916,-560.62232 560.62231,-560.62232 309.62316,0 560.622319,250.99916 560.622319,560.62232 z"
             transform="matrix(-0.16148908,-0.03102014,0.03225727,-0.15529569,74.24636,153.52685)" />
        </g>
      </g>
      <g
         transform="matrix(0.89916931,-0.43760093,0.43760093,0.89916931,259.01169,93.080621)"
         id="g3365">
        <text
           xml:space="preserve"
           style="font-size:8.27616215px;font-style:normal;font-variant:normal;font-weight:900;font-stretch:normal;line-height:125%;letter-spacing:0px;word-spacing:0px;fill:#37a690;fill-opacity:1;stroke:none;font-family:Nexa Rust Slab;-inkscape-font-specification:Nexa Rust Slab Heavy"
           id="text3101-9"
           sodipodi:linespacing="125%"><textPath
             style="font-size:13.5466671px;font-style:normal;font-variant:normal;font-weight:bold;font-stretch:normal;letter-spacing:1.41111124px;fill:#37a690;fill-opacity:1;font-family:Oswald Stencil;-inkscape-font-specification:Oswald Stencil Bold"
             xlink:href="#path3099"
             id="textPath3362">Of Surveillance</textPath></text>
        <path
           sodipodi:type="arc"
           style="opacity:0.63999999;color:#000000;fill:none;stroke:none;stroke-width:1.477;marker:none;visibility:visible;display:inline;overflow:visible;enable-background:accumulate"
           id="path3099"
           sodipodi:cx="-614.27039"
           sodipodi:cy="946.88843"
           sodipodi:rx="560.62231"
           sodipodi:ry="560.62231"
           d="m -53.648071,946.88843 c 0,309.62317 -250.999159,560.62227 -560.622319,560.62227 -309.62315,0 -560.62231,-250.9991 -560.62231,-560.62227 0,-309.62316 250.99916,-560.62232 560.62231,-560.62232 309.62316,0 560.622319,250.99916 560.622319,560.62232 z"
           transform="matrix(-0.18241201,0.03503919,0.0364366,0.17541619,57.436669,-119.04211)" />
      </g>
      <g
         transform="matrix(0.94285159,0.33321296,-0.33321296,0.94285159,267.16096,-65.9125)"
         id="g4056">
        <path
           sodipodi:type="star"
           style="color:#000000;fill:#37a690;fill-opacity:1;fill-rule:nonzero;stroke:none;stroke-width:1.477;marker:none;visibility:visible;display:inline;overflow:visible;enable-background:accumulate"
           id="path4044"
           sodipodi:sides="5"
           sodipodi:cx="-422.05469"
           sodipodi:cy="145.33562"
           sodipodi:r1="69.711739"
           sodipodi:r2="188.41011"
           sodipodi:arg1="0.78539816"
           sodipodi:arg2="1.4137167"
           inkscape:flatsided="false"
           inkscape:rounded="0"
           inkscape:randomized="0"
           d="m -372.76104,194.62926 -19.81981,136.79683 -61.1223,-123.97686 -136.22618,23.42279 99.02117,-96.44172 -64.37259,-122.32075 122.32074,64.372596 96.44172,-99.021166 -23.42278,136.22617 123.97685,61.1223 z"
           transform="matrix(0.03458858,0.02899623,-0.02899623,0.03458858,312.12909,-2.7507951)"
           inkscape:transform-center-x="1.4793871"
           inkscape:transform-center-y="-9.6357198" />
        <path
           transform="matrix(0.37408616,-0.12330536,0.1198482,0.36359776,13.368234,-67.162565)"
           d="m 661.85852,387.53745 c 0,152.30598 -123.4684,275.77438 -275.77438,275.77438 -152.30599,0 -275.77439,-123.4684 -275.77439,-275.77438 0,-152.30599 123.4684,-275.77439 275.77439,-275.77439 152.30598,0 275.77438,123.4684 275.77438,275.77439 z"
           sodipodi:ry="275.77438"
           sodipodi:rx="275.77438"
           sodipodi:cy="387.53745"
           sodipodi:cx="386.08414"
           id="path4054"
           style="color:#000000;fill:none;stroke:none;stroke-width:1.477;marker:none;visibility:visible;display:inline;overflow:visible;enable-background:accumulate"
           sodipodi:type="arc" />
      </g>
      <g
         id="g4060"
         transform="matrix(0.85188658,0.52372631,-0.52372631,0.85188658,290.71971,-102.44572)">
        <path
           inkscape:transform-center-y="-9.6357198"
           inkscape:transform-center-x="1.4793871"
           transform="matrix(0.03458858,0.02899623,-0.02899623,0.03458858,312.12909,-2.7507951)"
           d="m -372.76104,194.62926 -19.81981,136.79683 -61.1223,-123.97686 -136.22618,23.42279 99.02117,-96.44172 -64.37259,-122.32075 122.32074,64.372596 96.44172,-99.021166 -23.42278,136.22617 123.97685,61.1223 z"
           inkscape:randomized="0"
           inkscape:rounded="0"
           inkscape:flatsided="false"
           sodipodi:arg2="1.4137167"
           sodipodi:arg1="0.78539816"
           sodipodi:r2="188.41011"
           sodipodi:r1="69.711739"
           sodipodi:cy="145.33562"
           sodipodi:cx="-422.05469"
           sodipodi:sides="5"
           id="path4062"
           style="color:#000000;fill:#37a690;fill-opacity:1;fill-rule:nonzero;stroke:none;stroke-width:1.477;marker:none;visibility:visible;display:inline;overflow:visible;enable-background:accumulate"
           sodipodi:type="star" />
        <path
           sodipodi:type="arc"
           style="color:#000000;fill:none;stroke:none;stroke-width:1.477;marker:none;visibility:visible;display:inline;overflow:visible;enable-background:accumulate"
           id="path4064"
           sodipodi:cx="386.08414"
           sodipodi:cy="387.53745"
           sodipodi:rx="275.77438"
           sodipodi:ry="275.77438"
           d="m 661.85852,387.53745 c 0,152.30598 -123.4684,275.77438 -275.77438,275.77438 -152.30599,0 -275.77439,-123.4684 -275.77439,-275.77438 0,-152.30599 123.4684,-275.77439 275.77439,-275.77439 152.30598,0 275.77438,123.4684 275.77438,275.77439 z"
           transform="matrix(0.37408616,-0.12330536,0.1198482,0.36359776,13.368234,-67.162565)" />
      </g>
      <g
         transform="matrix(0.71958427,0.69440512,-0.69440512,0.71958427,322.20285,-133.84737)"
         id="g4066">
        <path
           sodipodi:type="star"
           style="color:#000000;fill:#37a690;fill-opacity:1;fill-rule:nonzero;stroke:none;stroke-width:1.477;marker:none;visibility:visible;display:inline;overflow:visible;enable-background:accumulate"
           id="path4068"
           sodipodi:sides="5"
           sodipodi:cx="-422.05469"
           sodipodi:cy="145.33562"
           sodipodi:r1="69.711739"
           sodipodi:r2="188.41011"
           sodipodi:arg1="0.78539816"
           sodipodi:arg2="1.4137167"
           inkscape:flatsided="false"
           inkscape:rounded="0"
           inkscape:randomized="0"
           d="m -372.76104,194.62926 -19.81981,136.79683 -61.1223,-123.97686 -136.22618,23.42279 99.02117,-96.44172 -64.37259,-122.32075 122.32074,64.372596 96.44172,-99.021166 -23.42278,136.22617 123.97685,61.1223 z"
           transform="matrix(0.03458858,0.02899623,-0.02899623,0.03458858,312.12909,-2.7507951)"
           inkscape:transform-center-x="1.4793871"
           inkscape:transform-center-y="-9.6357198" />
        <path
           transform="matrix(0.37408616,-0.12330536,0.1198482,0.36359776,13.368234,-67.162565)"
           d="m 661.85852,387.53745 c 0,152.30598 -123.4684,275.77438 -275.77438,275.77438 -152.30599,0 -275.77439,-123.4684 -275.77439,-275.77438 0,-152.30599 123.4684,-275.77439 275.77439,-275.77439 152.30598,0 275.77438,123.4684 275.77438,275.77439 z"
           sodipodi:ry="275.77438"
           sodipodi:rx="275.77438"
           sodipodi:cy="387.53745"
           sodipodi:cx="386.08414"
           id="path4070"
           style="color:#000000;fill:none;stroke:none;stroke-width:1.477;marker:none;visibility:visible;display:inline;overflow:visible;enable-background:accumulate"
           sodipodi:type="arc" />
      </g>
      <g
         id="g4072"
         transform="matrix(0.56182305,0.82725743,-0.82725743,0.56182305,357.89703,-156.85775)">
        <path
           inkscape:transform-center-y="-9.6357198"
           inkscape:transform-center-x="1.4793871"
           transform="matrix(0.03458858,0.02899623,-0.02899623,0.03458858,312.12909,-2.7507951)"
           d="m -372.76104,194.62926 -19.81981,136.79683 -61.1223,-123.97686 -136.22618,23.42279 99.02117,-96.44172 -64.37259,-122.32075 122.32074,64.372596 96.44172,-99.021166 -23.42278,136.22617 123.97685,61.1223 z"
           inkscape:randomized="0"
           inkscape:rounded="0"
           inkscape:flatsided="false"
           sodipodi:arg2="1.4137167"
           sodipodi:arg1="0.78539816"
           sodipodi:r2="188.41011"
           sodipodi:r1="69.711739"
           sodipodi:cy="145.33562"
           sodipodi:cx="-422.05469"
           sodipodi:sides="5"
           id="path4074"
           style="color:#000000;fill:#37a690;fill-opacity:1;fill-rule:nonzero;stroke:none;stroke-width:1.477;marker:none;visibility:visible;display:inline;overflow:visible;enable-background:accumulate"
           sodipodi:type="star" />
        <path
           sodipodi:type="arc"
           style="color:#000000;fill:none;stroke:none;stroke-width:1.477;marker:none;visibility:visible;display:inline;overflow:visible;enable-background:accumulate"
           id="path4076"
           sodipodi:cx="386.08414"
           sodipodi:cy="387.53745"
           sodipodi:rx="275.77438"
           sodipodi:ry="275.77438"
           d="m 661.85852,387.53745 c 0,152.30598 -123.4684,275.77438 -275.77438,275.77438 -152.30599,0 -275.77439,-123.4684 -275.77439,-275.77438 0,-152.30599 123.4684,-275.77439 275.77439,-275.77439 152.30598,0 275.77438,123.4684 275.77438,275.77439 z"
           transform="matrix(0.37408616,-0.12330536,0.1198482,0.36359776,13.368234,-67.162565)" />
      </g>
      <g
         transform="matrix(0.38268645,0.9238783,-0.9238783,0.38268645,397.00993,-171.90941)"
         id="g4078">
        <path
           sodipodi:type="star"
           style="color:#000000;fill:#37a690;fill-opacity:1;fill-rule:nonzero;stroke:none;stroke-width:1.477;marker:none;visibility:visible;display:inline;overflow:visible;enable-background:accumulate"
           id="path4080"
           sodipodi:sides="5"
           sodipodi:cx="-422.05469"
           sodipodi:cy="145.33562"
           sodipodi:r1="69.711739"
           sodipodi:r2="188.41011"
           sodipodi:arg1="0.78539816"
           sodipodi:arg2="1.4137167"
           inkscape:flatsided="false"
           inkscape:rounded="0"
           inkscape:randomized="0"
           d="m -372.76104,194.62926 -19.81981,136.79683 -61.1223,-123.97686 -136.22618,23.42279 99.02117,-96.44172 -64.37259,-122.32075 122.32074,64.372596 96.44172,-99.021166 -23.42278,136.22617 123.97685,61.1223 z"
           transform="matrix(0.03458858,0.02899623,-0.02899623,0.03458858,312.12909,-2.7507951)"
           inkscape:transform-center-x="1.4793871"
           inkscape:transform-center-y="-9.6357198" />
        <path
           transform="matrix(0.37408616,-0.12330536,0.1198482,0.36359776,13.368234,-67.162565)"
           d="m 661.85852,387.53745 c 0,152.30598 -123.4684,275.77438 -275.77438,275.77438 -152.30599,0 -275.77439,-123.4684 -275.77439,-275.77438 0,-152.30599 123.4684,-275.77439 275.77439,-275.77439 152.30598,0 275.77438,123.4684 275.77438,275.77439 z"
           sodipodi:ry="275.77438"
           sodipodi:rx="275.77438"
           sodipodi:cy="387.53745"
           sodipodi:cx="386.08414"
           id="path4082"
           style="color:#000000;fill:none;stroke:none;stroke-width:1.477;marker:none;visibility:visible;display:inline;overflow:visible;enable-background:accumulate"
           sodipodi:type="arc" />
      </g>
      <g
         id="g4084"
         transform="matrix(0.1877011,0.98222619,-0.98222619,0.1877011,438.35939,-178.72983)">
        <path
           inkscape:transform-center-y="-9.6357198"
           inkscape:transform-center-x="1.4793871"
           transform="matrix(0.03458858,0.02899623,-0.02899623,0.03458858,312.12909,-2.7507951)"
           d="m -372.76104,194.62926 -19.81981,136.79683 -61.1223,-123.97686 -136.22618,23.42279 99.02117,-96.44172 -64.37259,-122.32075 122.32074,64.372596 96.44172,-99.021166 -23.42278,136.22617 123.97685,61.1223 z"
           inkscape:randomized="0"
           inkscape:rounded="0"
           inkscape:flatsided="false"
           sodipodi:arg2="1.4137167"
           sodipodi:arg1="0.78539816"
           sodipodi:r2="188.41011"
           sodipodi:r1="69.711739"
           sodipodi:cy="145.33562"
           sodipodi:cx="-422.05469"
           sodipodi:sides="5"
           id="path4086"
           style="color:#000000;fill:#37a690;fill-opacity:1;fill-rule:nonzero;stroke:none;stroke-width:1.477;marker:none;visibility:visible;display:inline;overflow:visible;enable-background:accumulate"
           sodipodi:type="star" />
        <path
           sodipodi:type="arc"
           style="color:#000000;fill:none;stroke:none;stroke-width:1.477;marker:none;visibility:visible;display:inline;overflow:visible;enable-background:accumulate"
           id="path4088"
           sodipodi:cx="386.08414"
           sodipodi:cy="387.53745"
           sodipodi:rx="275.77438"
           sodipodi:ry="275.77438"
           d="m 661.85852,387.53745 c 0,152.30598 -123.4684,275.77438 -275.77438,275.77438 -152.30599,0 -275.77439,-123.4684 -275.77439,-275.77438 0,-152.30599 123.4684,-275.77439 275.77439,-275.77439 152.30598,0 275.77438,123.4684 275.77438,275.77439 z"
           transform="matrix(0.37408616,-0.12330536,0.1198482,0.36359776,13.368234,-67.162565)" />
      </g>
      <g
         transform="matrix(-0.01411864,0.99990032,-0.99990032,-0.01411864,480.04157,-177.06429)"
         id="g4090">
        <path
           sodipodi:type="star"
           style="color:#000000;fill:#37a690;fill-opacity:1;fill-rule:nonzero;stroke:none;stroke-width:1.477;marker:none;visibility:visible;display:inline;overflow:visible;enable-background:accumulate"
           id="path4092"
           sodipodi:sides="5"
           sodipodi:cx="-422.05469"
           sodipodi:cy="145.33562"
           sodipodi:r1="69.711739"
           sodipodi:r2="188.41011"
           sodipodi:arg1="0.78539816"
           sodipodi:arg2="1.4137167"
           inkscape:flatsided="false"
           inkscape:rounded="0"
           inkscape:randomized="0"
           d="m -372.76104,194.62926 -19.81981,136.79683 -61.1223,-123.97686 -136.22618,23.42279 99.02117,-96.44172 -64.37259,-122.32075 122.32074,64.372596 96.44172,-99.021166 -23.42278,136.22617 123.97685,61.1223 z"
           transform="matrix(0.03458858,0.02899623,-0.02899623,0.03458858,312.12909,-2.7507951)"
           inkscape:transform-center-x="1.4793871"
           inkscape:transform-center-y="-9.6357198" />
        <path
           transform="matrix(0.37408616,-0.12330536,0.1198482,0.36359776,13.368234,-67.162565)"
           d="m 661.85852,387.53745 c 0,152.30598 -123.4684,275.77438 -275.77438,275.77438 -152.30599,0 -275.77439,-123.4684 -275.77439,-275.77438 0,-152.30599 123.4684,-275.77439 275.77439,-275.77439 152.30598,0 275.77438,123.4684 275.77438,275.77439 z"
           sodipodi:ry="275.77438"
           sodipodi:rx="275.77438"
           sodipodi:cy="387.53745"
           sodipodi:cx="386.08414"
           id="path4094"
           style="color:#000000;fill:none;stroke:none;stroke-width:1.477;marker:none;visibility:visible;display:inline;overflow:visible;enable-background:accumulate"
           sodipodi:type="arc" />
      </g>
      <g
         id="g4108"
         transform="matrix(-0.99714361,0.07552904,-0.07552904,-0.99714361,656.6551,37.426946)">
        <path
           inkscape:transform-center-y="-9.6357198"
           inkscape:transform-center-x="1.4793871"
           transform="matrix(0.03458858,0.02899623,-0.02899623,0.03458858,312.12909,-2.7507951)"
           d="m -372.76104,194.62926 -19.81981,136.79683 -61.1223,-123.97686 -136.22618,23.42279 99.02117,-96.44172 -64.37259,-122.32075 122.32074,64.372596 96.44172,-99.021166 -23.42278,136.22617 123.97685,61.1223 z"
           inkscape:randomized="0"
           inkscape:rounded="0"
           inkscape:flatsided="false"
           sodipodi:arg2="1.4137167"
           sodipodi:arg1="0.78539816"
           sodipodi:r2="188.41011"
           sodipodi:r1="69.711739"
           sodipodi:cy="145.33562"
           sodipodi:cx="-422.05469"
           sodipodi:sides="5"
           id="path4110"
           style="color:#000000;fill:#37a690;fill-opacity:1;fill-rule:nonzero;stroke:none;stroke-width:1.477;marker:none;visibility:visible;display:inline;overflow:visible;enable-background:accumulate"
           sodipodi:type="star" />
        <path
           sodipodi:type="arc"
           style="color:#000000;fill:none;stroke:none;stroke-width:1.477;marker:none;visibility:visible;display:inline;overflow:visible;enable-background:accumulate"
           id="path4112"
           sodipodi:cx="386.08414"
           sodipodi:cy="387.53745"
           sodipodi:rx="275.77438"
           sodipodi:ry="275.77438"
           d="m 661.85852,387.53745 c 0,152.30598 -123.4684,275.77438 -275.77438,275.77438 -152.30599,0 -275.77439,-123.4684 -275.77439,-275.77438 0,-152.30599 123.4684,-275.77439 275.77439,-275.77439 152.30598,0 275.77438,123.4684 275.77438,275.77439 z"
           transform="matrix(0.37408616,-0.12330536,0.1198482,0.36359776,13.368234,-67.162565)" />
      </g>
      <g
         transform="matrix(-0.99142986,-0.13064006,0.13064006,-0.99142986,650.09907,79.386115)"
         id="g4114">
        <path
           sodipodi:type="star"
           style="color:#000000;fill:#37a690;fill-opacity:1;fill-rule:nonzero;stroke:none;stroke-width:1.477;marker:none;visibility:visible;display:inline;overflow:visible;enable-background:accumulate"
           id="path4116"
           sodipodi:sides="5"
           sodipodi:cx="-422.05469"
           sodipodi:cy="145.33562"
           sodipodi:r1="69.711739"
           sodipodi:r2="188.41011"
           sodipodi:arg1="0.78539816"
           sodipodi:arg2="1.4137167"
           inkscape:flatsided="false"
           inkscape:rounded="0"
           inkscape:randomized="0"
           d="m -372.76104,194.62926 -19.81981,136.79683 -61.1223,-123.97686 -136.22618,23.42279 99.02117,-96.44172 -64.37259,-122.32075 122.32074,64.372596 96.44172,-99.021166 -23.42278,136.22617 123.97685,61.1223 z"
           transform="matrix(0.03458858,0.02899623,-0.02899623,0.03458858,312.12909,-2.7507951)"
           inkscape:transform-center-x="1.4793871"
           inkscape:transform-center-y="-9.6357198" />
        <path
           transform="matrix(0.37408616,-0.12330536,0.1198482,0.36359776,13.368234,-67.162565)"
           d="m 661.85852,387.53745 c 0,152.30598 -123.4684,275.77438 -275.77438,275.77438 -152.30599,0 -275.77439,-123.4684 -275.77439,-275.77438 0,-152.30599 123.4684,-275.77439 275.77439,-275.77439 152.30598,0 275.77438,123.4684 275.77438,275.77439 z"
           sodipodi:ry="275.77438"
           sodipodi:rx="275.77438"
           sodipodi:cy="387.53745"
           sodipodi:cx="386.08414"
           id="path4118"
           style="color:#000000;fill:none;stroke:none;stroke-width:1.477;marker:none;visibility:visible;display:inline;overflow:visible;enable-background:accumulate"
           sodipodi:type="arc" />
      </g>
      <g
         id="g4120"
         transform="matrix(-0.94444317,-0.32867481,0.32867481,-0.94444317,635.32596,118.60507)">
        <path
           inkscape:transform-center-y="-9.6357198"
           inkscape:transform-center-x="1.4793871"
           transform="matrix(0.03458858,0.02899623,-0.02899623,0.03458858,312.12909,-2.7507951)"
           d="m -372.76104,194.62926 -19.81981,136.79683 -61.1223,-123.97686 -136.22618,23.42279 99.02117,-96.44172 -64.37259,-122.32075 122.32074,64.372596 96.44172,-99.021166 -23.42278,136.22617 123.97685,61.1223 z"
           inkscape:randomized="0"
           inkscape:rounded="0"
           inkscape:flatsided="false"
           sodipodi:arg2="1.4137167"
           sodipodi:arg1="0.78539816"
           sodipodi:r2="188.41011"
           sodipodi:r1="69.711739"
           sodipodi:cy="145.33562"
           sodipodi:cx="-422.05469"
           sodipodi:sides="5"
           id="path4122"
           style="color:#000000;fill:#37a690;fill-opacity:1;fill-rule:nonzero;stroke:none;stroke-width:1.477;marker:none;visibility:visible;display:inline;overflow:visible;enable-background:accumulate"
           sodipodi:type="star" />
        <path
           sodipodi:type="arc"
           style="color:#000000;fill:none;stroke:none;stroke-width:1.477;marker:none;visibility:visible;display:inline;overflow:visible;enable-background:accumulate"
           id="path4124"
           sodipodi:cx="386.08414"
           sodipodi:cy="387.53745"
           sodipodi:rx="275.77438"
           sodipodi:ry="275.77438"
           d="m 661.85852,387.53745 c 0,152.30598 -123.4684,275.77438 -275.77438,275.77438 -152.30599,0 -275.77439,-123.4684 -275.77439,-275.77438 0,-152.30599 123.4684,-275.77439 275.77439,-275.77439 152.30598,0 275.77438,123.4684 275.77438,275.77439 z"
           transform="matrix(0.37408616,-0.12330536,0.1198482,0.36359776,13.368234,-67.162565)" />
      </g>
      <g
         transform="matrix(-0.85833462,-0.51309032,0.51309032,-0.85833462,612.91852,154.01979)"
         id="g4126">
        <path
           sodipodi:type="star"
           style="color:#000000;fill:#37a690;fill-opacity:1;fill-rule:nonzero;stroke:none;stroke-width:1.477;marker:none;visibility:visible;display:inline;overflow:visible;enable-background:accumulate"
           id="path4128"
           sodipodi:sides="5"
           sodipodi:cx="-422.05469"
           sodipodi:cy="145.33562"
           sodipodi:r1="69.711739"
           sodipodi:r2="188.41011"
           sodipodi:arg1="0.78539816"
           sodipodi:arg2="1.4137167"
           inkscape:flatsided="false"
           inkscape:rounded="0"
           inkscape:randomized="0"
           d="m -372.76104,194.62926 -19.81981,136.79683 -61.1223,-123.97686 -136.22618,23.42279 99.02117,-96.44172 -64.37259,-122.32075 122.32074,64.372596 96.44172,-99.021166 -23.42278,136.22617 123.97685,61.1223 z"
           transform="matrix(0.03458858,0.02899623,-0.02899623,0.03458858,312.12909,-2.7507951)"
           inkscape:transform-center-x="1.4793871"
           inkscape:transform-center-y="-9.6357198" />
        <path
           transform="matrix(0.37408616,-0.12330536,0.1198482,0.36359776,13.368234,-67.162565)"
           d="m 661.85852,387.53745 c 0,152.30598 -123.4684,275.77438 -275.77438,275.77438 -152.30599,0 -275.77439,-123.4684 -275.77439,-275.77438 0,-152.30599 123.4684,-275.77439 275.77439,-275.77439 152.30598,0 275.77438,123.4684 275.77438,275.77439 z"
           sodipodi:ry="275.77438"
           sodipodi:rx="275.77438"
           sodipodi:cy="387.53745"
           sodipodi:cx="386.08414"
           id="path4130"
           style="color:#000000;fill:none;stroke:none;stroke-width:1.477;marker:none;visibility:visible;display:inline;overflow:visible;enable-background:accumulate"
           sodipodi:type="arc" />
      </g>
      <g
         id="g4132"
         transform="matrix(-0.73730666,-0.6755582,0.6755582,-0.73730666,583.95271,184.03913)">
        <path
           inkscape:transform-center-y="-9.6357198"
           inkscape:transform-center-x="1.4793871"
           transform="matrix(0.03458858,0.02899623,-0.02899623,0.03458858,312.12909,-2.7507951)"
           d="m -372.76104,194.62926 -19.81981,136.79683 -61.1223,-123.97686 -136.22618,23.42279 99.02117,-96.44172 -64.37259,-122.32075 122.32074,64.372596 96.44172,-99.021166 -23.42278,136.22617 123.97685,61.1223 z"
           inkscape:randomized="0"
           inkscape:rounded="0"
           inkscape:flatsided="false"
           sodipodi:arg2="1.4137167"
           sodipodi:arg1="0.78539816"
           sodipodi:r2="188.41011"
           sodipodi:r1="69.711739"
           sodipodi:cy="145.33562"
           sodipodi:cx="-422.05469"
           sodipodi:sides="5"
           id="path4134"
           style="color:#000000;fill:#37a690;fill-opacity:1;fill-rule:nonzero;stroke:none;stroke-width:1.477;marker:none;visibility:visible;display:inline;overflow:visible;enable-background:accumulate"
           sodipodi:type="star" />
        <path
           sodipodi:type="arc"
           style="color:#000000;fill:none;stroke:none;stroke-width:1.477;marker:none;visibility:visible;display:inline;overflow:visible;enable-background:accumulate"
           id="path4136"
           sodipodi:cx="386.08414"
           sodipodi:cy="387.53745"
           sodipodi:rx="275.77438"
           sodipodi:ry="275.77438"
           d="m 661.85852,387.53745 c 0,152.30598 -123.4684,275.77438 -275.77438,275.77438 -152.30599,0 -275.77439,-123.4684 -275.77439,-275.77438 0,-152.30599 123.4684,-275.77439 275.77439,-275.77439 152.30598,0 275.77438,123.4684 275.77438,275.77439 z"
           transform="matrix(0.37408616,-0.12330536,0.1198482,0.36359776,13.368234,-67.162565)" />
      </g>
    </g>
  </g>
</svg>
