<?xml version="1.0" encoding="UTF-8" standalone="no"?>
<!-- Created with Inkscape (http://www.inkscape.org/) -->

<svg
   xmlns:dc="http://purl.org/dc/elements/1.1/"
   xmlns:cc="http://creativecommons.org/ns#"
   xmlns:rdf="http://www.w3.org/1999/02/22-rdf-syntax-ns#"
   xmlns:svg="http://www.w3.org/2000/svg"
   xmlns="http://www.w3.org/2000/svg"
   xmlns:xlink="http://www.w3.org/1999/xlink"
   xmlns:sodipodi="http://sodipodi.sourceforge.net/DTD/sodipodi-0.dtd"
   xmlns:inkscape="http://www.inkscape.org/namespaces/inkscape"
   width="75.818535mm"
   height="59.341137mm"
   viewBox="0 0 75.818535 59.341137"
   id="svg3352"
   version="1.1"
   inkscape:version="0.48.5 r10040"
   sodipodi:docname="squawk-cc.svg"
   inkscape:export-filename="/home/ben/Projects/squawk/assets/squawk-cc-128x100.png"
   inkscape:export-xdpi="42.80336"
   inkscape:export-ydpi="42.80336">
  <defs
     id="defs3354">
    <linearGradient
       inkscape:collect="always"
       id="linearGradient4271">
      <stop
         style="stop-color:#afe9dd;stop-opacity:1"
         offset="0"
         id="stop4273" />
      <stop
         style="stop-color:#2ca089;stop-opacity:1"
         offset="1"
         id="stop4275" />
    </linearGradient>
    <radialGradient
       inkscape:collect="always"
       xlink:href="#linearGradient4271"
       id="radialGradient4277"
       cx="166.57822"
       cy="74.417564"
       fx="166.57822"
       fy="74.417564"
       r="31.864775"
       gradientTransform="matrix(0.56786023,-0.75163329,1.248995,0.94361517,-333.05511,164.38749)"
       gradientUnits="userSpaceOnUse" />
  </defs>
  <sodipodi:namedview
     inkscape:document-units="mm"
     pagecolor="#f45050"
     bordercolor="#666666"
     borderopacity="1.0"
     inkscape:pageopacity="0"
     inkscape:pageshadow="2"
     inkscape:zoom="0.70152381"
     inkscape:cx="102.51229"
     inkscape:cy="-23.640936"
     inkscape:current-layer="g4312"
     id="namedview3356"
     showgrid="false"
     inkscape:window-width="1280"
     inkscape:window-height="734"
     inkscape:window-x="0"
     inkscape:window-y="27"
     inkscape:window-maximized="1"
     fit-margin-top="0"
     fit-margin-left="0"
     fit-margin-right="0"
     fit-margin-bottom="0"
     units="mm" />
  <metadata
     id="metadata3358">
    <rdf:RDF>
      <cc:Work
         rdf:about="">
        <dc:format>image/svg+xml</dc:format>
        <dc:type
           rdf:resource="http://purl.org/dc/dcmitype/StillImage" />
        <dc:title></dc:title>
      </cc:Work>
    </rdf:RDF>
  </metadata>
  <g
     inkscape:label="Layer 1"
     inkscape:groupmode="layer"
     id="layer1"
     transform="translate(-119.56875,-38.986866)">
    <path
       style="opacity:1;fill:none;fill-opacity:1;stroke:none;stroke-width:0.50858092;stroke-linecap:round;stroke-linejoin:round;stroke-miterlimit:4;stroke-dasharray:none;stroke-opacity:1"
       d="m 144.27586,106.49223 c 12.85425,8.01889 29.54043,9.07179 43.79624,1.31123 4.32362,-2.35369 8.08771,-5.33517 11.24073,-8.769745"
       id="path4293"
       inkscape:connector-curvature="0"
       sodipodi:nodetypes="csc" />
    <g
       id="g4312"
       transform="translate(-8.0459771,-2.4137931)">
      <ellipse
         transform="matrix(-0.97379894,0.22741068,0.22741068,0.97379894,0,0)"
         ry="29.503176"
         rx="30.743393"
         cy="108.39561"
         cx="-152.08731"
         id="path4235"
         style="opacity:1;fill:url(#radialGradient4277);fill-opacity:1;stroke:none;stroke-width:2.24276352;stroke-linecap:round;stroke-linejoin:round;stroke-miterlimit:4;stroke-dasharray:none;stroke-opacity:1"
         d="m -121.34392,108.39561 c 0,16.29415 -13.76428,29.50317 -30.74339,29.50317 -16.97911,0 -30.74339,-13.20902 -30.74339,-29.50317 0,-16.294157 13.76428,-29.503179 30.74339,-29.503179 16.97911,0 30.74339,13.209022 30.74339,29.503179 z" />
      <path
         sodipodi:nodetypes="ccccccccccccccccccccccc"
         inkscape:connector-curvature="0"
         id="path4241"
         d="m 188.38624,59.685316 c 0.3761,-2.152082 1.15332,-4.182116 -3.52058,-7.870813 -3.00563,-1.979383 -6.76841,-1.938553 -10.7083,-1.425157 -3.88275,1.040479 -6.88476,2.034163 -8.60669,3.590234 l -12.4497,6.374585 c -4.48748,1.434992 -8.86673,2.373602 -14.66734,0.340654 -0.33841,1.181422 -0.0772,2.090155 0.73727,2.74728 l -5.91552,-2.487998 c -0.48667,1.77518 -0.18699,3.366722 1.01933,4.746539 -2.05775,-0.400932 -3.81747,-2.530222 -5.86029,-3.88991 -0.34761,1.537172 -1.22634,2.352436 -0.55198,5.27863 2.60153,4.094452 5.00474,4.679915 7.99657,5.423446 l 10.31819,0.955421 c -0.20264,3.074482 0.97793,5.379392 2.33271,7.587379 -0.49496,2.002254 -1.13757,3.990839 -1.65615,5.990906 6.99092,17.082278 35.12789,16.932378 45.40298,6.43404 -1.98494,-2.050723 -0.93266,-2.654759 -3.72947,-4.288582 l -4.16547,-4.005278 -0.0487,-2.116694 -2.24356,-4.804011 -5.54123,-5.716422 c 2.79918,-3.760902 6.17191,-7.602672 8.23495,-12.005085 1.61626,-2.025774 1.3029,-1.728721 3.62303,-0.859166 z"
         style="fill:#ffffff;fill-rule:evenodd;stroke:none;stroke-width:0.28222221px;stroke-linecap:butt;stroke-linejoin:miter;stroke-opacity:1" />
      <path
         inkscape:connector-curvature="0"
         id="path4243"
         d="M 187.7302,59.277684 Z"
         style="fill:none;fill-rule:evenodd;stroke:#000000;stroke-width:0.28222221px;stroke-linecap:butt;stroke-linejoin:miter;stroke-opacity:1" />
      <ellipse
         transform="matrix(-0.99743143,0.07162782,0.09951045,0.99503652,0,0)"
         inkscape:transform-center-y="1.1368464"
         inkscape:transform-center-x="0.94157864"
         ry="2.9256318"
         rx="3.8741806"
         cy="76.315918"
         cx="-166.88029"
         id="path4251"
         style="opacity:1;fill:#5fd3bc;fill-opacity:1;stroke:none;stroke-width:14.17322826;stroke-linecap:round;stroke-linejoin:round;stroke-miterlimit:4;stroke-dasharray:none"
         d="m -163.00611,76.315918 c 0,1.615782 -1.73453,2.925632 -3.87418,2.925632 -2.13966,0 -3.87419,-1.30985 -3.87419,-2.925632 0,-1.615782 1.73453,-2.925632 3.87419,-2.925632 2.13965,0 3.87418,1.30985 3.87418,2.925632 z" />
      <ellipse
         transform="matrix(-0.97379894,0.22741068,0.22741068,0.97379894,0,0)"
         style="opacity:1;fill:#000000;fill-opacity:1;stroke:none;stroke-width:14.17322826;stroke-linecap:round;stroke-linejoin:round;stroke-miterlimit:4;stroke-dasharray:none"
         id="ellipse4253"
         cx="-155.53801"
         cy="101.97539"
         rx="2.0026522"
         ry="1.6766392"
         inkscape:transform-center-x="0.55887971"
         inkscape:transform-center-y="0.55887971"
         d="m -153.53536,101.97539 c 0,0.92598 -0.89662,1.67664 -2.00265,1.67664 -1.10603,0 -2.00265,-0.75066 -2.00265,-1.67664 0,-0.92598 0.89662,-1.67664 2.00265,-1.67664 1.10603,0 2.00265,0.75066 2.00265,1.67664 z" />
      <ellipse
         transform="matrix(-0.97379894,0.22741068,0.22741068,0.97379894,0,0)"
         ry="0.46573311"
         rx="0.75357199"
         cy="101.69595"
         cx="-156.0419"
         id="path4255"
         style="opacity:1;fill:#ffffff;fill-opacity:1;stroke:none;stroke-width:14.17322826;stroke-linecap:round;stroke-linejoin:round;stroke-miterlimit:4;stroke-dasharray:none"
         d="m -155.28833,101.69595 c 0,0.25722 -0.33738,0.46574 -0.75357,0.46574 -0.41619,0 -0.75357,-0.20852 -0.75357,-0.46574 0,-0.25721 0.33738,-0.46573 0.75357,-0.46573 0.41619,0 0.75357,0.20852 0.75357,0.46573 z" />
      <path
         sodipodi:nodetypes="cccccccccccccccccccc"
         inkscape:connector-curvature="0"
         id="path4257"
         d="m 146.91561,72.32507 c 1.13451,-0.724281 -0.0486,-1.835622 -0.24507,-2.774664 0.38514,-0.813676 1.55881,-1.256891 2.2366,-1.940288 1.50324,-1.221219 2.58953,-2.857242 3.85919,-4.303664 0.35322,-0.772618 2.0451,-1.614423 1.10644,-2.368322 -0.31428,-0.226356 -0.6078,-1.046126 -1.05392,-0.791672 -2.27597,0.48205 -4.51951,1.188955 -6.84732,1.365157 -2.56153,0.08859 -5.14432,-0.27056 -7.56732,-1.11356 -0.11388,0.823071 -0.40422,2.060244 0.2178,2.675001 0.12171,0.826773 -0.84813,-0.387068 -1.31344,-0.430155 -1.31728,-0.542762 -3.00137,-1.518819 -4.33389,-2.023068 -0.47624,1.544581 0.0173,3.296539 1.12727,4.465189 0.17762,0.487065 -0.86386,0.246849 -1.2174,0.04352 -1.58337,-0.88806 -2.91579,-2.138489 -4.36236,-3.220589 -0.62985,1.351942 -0.94031,3.506117 -0.55758,4.988621 0.29648,1.229983 1.31092,2.113855 2.1278,3.019283 2.02301,1.993859 4.91824,2.687521 7.66584,2.89506 2.84559,0.277261 5.69193,0.557793 8.54327,0.767364 0.24442,-0.19734 0.40431,-1.020945 0.61403,-1.253201 z"
         style="opacity:1;fill:#ffff00;fill-opacity:1;stroke:#ffff00;stroke-width:0.1;stroke-linecap:round;stroke-linejoin:round;stroke-miterlimit:4;stroke-dasharray:none" />
      <path
         inkscape:connector-curvature="0"
         id="path4261"
         d="m 185.60968,83.034047 c 2.04204,-1.386601 2.07771,-1.607565 0.18822,-1.166313 l -1.61315,0.376717 -0.65341,-2.099193 c -0.35937,-1.154554 -0.79903,-2.238893 -0.97701,-2.409639 -0.17799,-0.170747 -0.58774,-0.652319 -0.91056,-1.070159 -1.05227,-1.361974 -0.99347,-4.227799 0.11936,-5.863089 0.64165,-0.942581 3.65862,-2.180318 5.09785,-2.091438 0.57687,0.03563 1.45203,-0.099 1.94477,-0.299171 0.49276,-0.200173 1.20666,-0.321099 1.58645,-0.268735 0.55975,0.07717 0.86395,-0.06506 1.60629,-0.751082 0.50368,-0.465458 1.05149,-0.82758 1.21737,-0.804716 0.16586,0.02287 0.78733,0.924678 1.38102,2.004027 0.59369,1.079347 1.14749,1.946558 1.23066,1.927135 0.28702,-0.06703 0.13332,-2.995126 -0.23598,-4.495939 -0.48025,-1.951371 -1.4426,-3.216746 -3.46081,-4.550144 -1.99899,-1.320694 -6.33961,-2.870425 -6.97718,-2.491054 -0.24757,0.147299 -1.30918,1.687598 -2.35914,3.422876 -1.04996,1.735277 -2.99622,4.574197 -4.32503,6.30871 -1.32882,1.734516 -2.40419,3.204345 -2.38972,3.266291 0.0145,0.06194 1.18958,1.304903 2.61137,2.762127 2.36135,2.420198 2.68902,2.868079 3.78623,5.175193 0.73548,1.546492 1.2157,2.8561 1.23866,3.377924 0.0206,0.468723 0.13026,0.822498 0.24367,0.786155 0.11342,-0.03635 0.85593,-0.507259 1.65002,-1.046469 z"
         style="opacity:1;fill:#000000;fill-opacity:1;stroke:#000000;stroke-width:1;stroke-linecap:round;stroke-linejoin:round;stroke-miterlimit:4;stroke-dasharray:none" />
      <path
         inkscape:connector-curvature="0"
         id="path4265"
         d="m 185.28967,78.863593 c -1.02467,-3.596773 -1.1763,-6.367925 -0.43822,-8.008777 0.31901,-0.709178 0.51484,-1.329911 0.43517,-1.379405 -0.36724,-0.228197 -3.29722,1.277875 -3.65397,1.878224 -1.10778,1.864134 -0.89206,4.282847 0.52662,5.904952 0.59634,0.681832 0.97031,1.395147 1.16647,2.224935 0.47775,2.019394 0.70334,2.282591 1.75005,2.038154 l 0.91055,-0.212641 -0.69667,-2.445442 z"
         style="opacity:1;fill:#d40000;fill-opacity:1;stroke:none;stroke-width:14.17322826;stroke-linecap:round;stroke-linejoin:round;stroke-miterlimit:4;stroke-dasharray:none" />
      <text
         transform="matrix(0.77332842,0.23512425,-0.23512425,0.77332842,60.38676,-28.724456)"
         sodipodi:linespacing="125%"
         id="text4296"
         style="font-size:11.28888893px;font-style:normal;font-variant:normal;font-weight:normal;font-stretch:normal;line-height:125%;letter-spacing:0px;word-spacing:0px;fill:#000000;fill-opacity:1;stroke:none;font-family:ChunkFive;-inkscape-font-specification:ChunkFive"
         xml:space="preserve"
         inkscape:export-xdpi="42.80336"
         inkscape:export-ydpi="42.80336"><textPath
           style="font-style:normal;font-variant:normal;font-weight:bold;font-stretch:normal;letter-spacing:0.56444442px;font-family:Oswald Stencil;-inkscape-font-specification:Oswald Stencil Bold"
           id="textPath4300"
           xlink:href="#path4293">squawk.cc</textPath></text>
    </g>
  </g>
</svg>
